<svg width="64" height="64" viewBox="0 0 64 64" fill="none" xmlns="http://www.w3.org/2000/svg">
<path d="M24.439 51.6978C21.9091 49.3852 21.1706 44.5262 22.2246 41.0059C24.0522 43.2253 26.5845 43.9284 29.2074 44.3253C33.2567 44.9377 37.2334 44.7087 40.995 42.8579C41.4253 42.646 41.823 42.3643 42.2932 42.0789C42.6461 43.1029 42.738 44.1366 42.6147 45.1888C42.315 47.7512 41.0397 49.7307 39.0115 51.2311C38.2004 51.8313 37.3422 52.3678 36.5046 52.9337C33.9312 54.6731 33.2349 56.7124 34.2019 59.6789C34.2249 59.7516 34.2455 59.8238 34.2974 60.0002C32.9835 59.412 32.0238 58.5557 31.2925 57.43C30.5201 56.2421 30.1527 54.9278 30.1333 53.5057C30.1236 52.8137 30.1236 52.1155 30.0306 51.4332C29.8033 49.7699 29.0225 49.0251 27.5515 48.9822C26.0418 48.9382 24.8476 49.8715 24.5309 51.3414C24.5067 51.454 24.4716 51.5655 24.4366 51.6966L24.439 51.6978Z" fill="#030712"/>
<path d="M24.439 51.6978C21.9091 49.3852 21.1706 44.5262 22.2246 41.0059C24.0522 43.2253 26.5845 43.9284 29.2074 44.3253C33.2567 44.9377 37.2334 44.7087 40.995 42.8579C41.4253 42.646 41.823 42.3643 42.2932 42.0789C42.6461 43.1029 42.738 44.1366 42.6147 45.1888C42.315 47.7512 41.0397 49.7307 39.0115 51.2311C38.2004 51.8313 37.3422 52.3678 36.5046 52.9337C33.9312 54.6731 33.2349 56.7124 34.2019 59.6789C34.2249 59.7516 34.2455 59.8238 34.2974 60.0002C32.9835 59.412 32.0238 58.5557 31.2925 57.43C30.5201 56.2421 30.1527 54.9278 30.1333 53.5057C30.1236 52.8137 30.1236 52.1155 30.0306 51.4332C29.8033 49.7699 29.0225 49.0251 27.5515 48.9822C26.0418 48.9382 24.8476 49.8715 24.5309 51.3414C24.5067 51.454 24.4716 51.5655 24.4366 51.6966L24.439 51.6978Z" fill="url(#paint0_linear_6332_2103)"/>
<path d="M10 40.4192C10 40.4192 17.4914 36.7698 25.0037 36.7698L30.6677 19.2406C30.8798 18.3929 31.4989 17.8168 32.1979 17.8168C32.8969 17.8168 33.5161 18.3929 33.7281 19.2406L39.3922 36.7698C48.2894 36.7698 54.3959 40.4192 54.3959 40.4192C54.3959 40.4192 41.6711 5.75449 41.6463 5.68494C41.2811 4.66007 40.6645 4 39.8333 4H24.5639C23.7327 4 23.141 4.66007 22.7509 5.68494C22.7234 5.75318 10 40.4192 10 40.4192Z" fill="#F3F4F6"/>
<defs>
<linearGradient id="paint0_linear_6332_2103" x1="21.7598" y1="60.0002" x2="46.1878" y2="48.4584" gradientUnits="userSpaceOnUse">
<stop stop-color="#D83333"/>
<stop offset="1" stop-color="#F041FF"/>
</linearGradient>
</defs>
</svg>
