<svg width="64" height="64" viewBox="0 0 64 64" fill="none" xmlns="http://www.w3.org/2000/svg">
<path fill-rule="evenodd" clip-rule="evenodd" d="M16.3873 4.27505C14.11 4.575 12.9042 5.12366 12.0452 5.96516C11.1863 6.80669 10.6263 7.98814 10.3201 10.2192C10.005 12.5159 10 15.5598 10 19.9242V44.0232C11.0932 43.2748 12.3252 42.7052 13.6534 42.3568C15.1389 41.9667 16.8711 41.9673 19.4096 41.9681H55V19.9242C55 15.5598 54.9949 12.5159 54.6799 10.2192C54.3736 7.98814 53.8137 6.80669 52.9548 5.96516C52.0958 5.12366 50.8901 4.575 48.6128 4.27505C46.2686 3.96626 43.1616 3.96143 38.7069 3.96143H26.2931C21.8383 3.96143 18.7314 3.96626 16.3873 4.27505ZM17.7586 16.8837C17.7586 15.6243 18.8007 14.6033 20.0862 14.6033H44.9138C46.1994 14.6033 47.2414 15.6243 47.2414 16.8837C47.2414 18.1432 46.1994 19.1641 44.9138 19.1641H20.0862C18.8007 19.1641 17.7586 18.1432 17.7586 16.8837ZM20.0862 25.2452C18.8007 25.2452 17.7586 26.2661 17.7586 27.5257C17.7586 28.7851 18.8007 29.806 20.0862 29.806H35.6033C36.8889 29.806 37.931 28.7851 37.931 27.5257C37.931 26.2661 36.8889 25.2452 35.6033 25.2452H20.0862Z" fill="#3059E4"/>
<path d="M23.1906 45.0054H19.7699C16.734 45.0054 15.6726 45.025 14.8592 45.2385C12.6268 45.8246 10.8472 47.4502 10.084 49.5635C10.1312 50.6391 10.2052 51.5851 10.3211 52.43C10.6273 54.6612 11.1873 55.8427 12.0461 56.6842C12.9051 57.5258 14.111 58.0742 16.3883 58.3743C18.7324 58.6831 21.8393 58.6878 26.2941 58.6878H38.7079C43.1625 58.6878 46.2695 58.6831 48.6137 58.3743C50.891 58.0742 52.0967 57.5258 52.9556 56.6842C53.8146 55.8427 54.3746 54.6612 54.6809 52.43C54.9379 50.5564 54.9885 48.1851 54.9983 45.0054H35.6042V53.4614C35.6042 54.2995 35.6042 54.7183 35.3101 54.8876C35.0156 55.057 34.6131 54.8696 33.8079 54.495L29.9525 52.7009C29.6803 52.574 29.5439 52.5107 29.3976 52.5107C29.2511 52.5107 29.1146 52.574 28.8424 52.7009L24.9871 54.495C24.182 54.8696 23.7794 55.057 23.4849 54.8876C23.1906 54.7183 23.1906 54.2995 23.1906 53.4614V45.0054Z" fill="#3059E4"/>
</svg>
