<svg width="64" height="64" viewBox="0 0 64 64" fill="none" xmlns="http://www.w3.org/2000/svg">
<path fill-rule="evenodd" clip-rule="evenodd" d="M16.3873 4.27499C14.11 4.57494 12.9042 5.1236 12.0452 5.9651C11.1863 6.80662 10.6263 7.98807 10.3201 10.2191C10.005 12.5158 10 15.5598 10 19.9242V44.0231C11.0932 43.2747 12.3252 42.7052 13.6534 42.3567C15.1389 41.9667 16.8711 41.9672 19.4096 41.9681H55V19.9242C55 15.5598 54.9949 12.5158 54.6799 10.2191C54.3736 7.98807 53.8137 6.80662 52.9548 5.9651C52.0958 5.1236 50.8901 4.57494 48.6128 4.27499C46.2686 3.9662 43.1616 3.96136 38.7069 3.96136H26.2931C21.8383 3.96136 18.7314 3.9662 16.3873 4.27499ZM17.7586 16.8836C17.7586 15.6242 18.8007 14.6033 20.0862 14.6033H44.9138C46.1994 14.6033 47.2414 15.6242 47.2414 16.8836C47.2414 18.1431 46.1994 19.164 44.9138 19.164H20.0862C18.8007 19.164 17.7586 18.1431 17.7586 16.8836ZM20.0862 25.2452C18.8007 25.2452 17.7586 26.2661 17.7586 27.5256C17.7586 28.785 18.8007 29.8059 20.0862 29.8059H35.6033C36.8889 29.8059 37.931 28.785 37.931 27.5256C37.931 26.2661 36.8889 25.2452 35.6033 25.2452H20.0862Z" fill="#4275EF"/>
<path d="M23.1911 45.0051H19.7704C16.7345 45.0051 15.673 45.0247 14.8597 45.2382C12.6273 45.8244 10.8476 47.45 10.0845 49.5633C10.1317 50.6388 10.2057 51.5849 10.3216 52.4298C10.6277 54.661 11.1878 55.8425 12.0466 56.684C12.9055 57.5255 14.1115 58.074 16.3888 58.374C18.7329 58.6828 21.8398 58.6876 26.2946 58.6876H38.7084C43.163 58.6876 46.27 58.6828 48.6142 58.374C50.8915 58.074 52.0972 57.5255 52.9561 56.684C53.815 55.8425 54.3751 54.661 54.6814 52.4298C54.9384 50.5562 54.989 48.1849 54.9988 45.0051H35.6047V53.4612C35.6047 54.2992 35.6047 54.7181 35.3106 54.8873C35.0161 55.0567 34.6136 54.8694 33.8084 54.4948L29.953 52.7006C29.6808 52.5738 29.5444 52.5105 29.3981 52.5105C29.2516 52.5105 29.1151 52.5738 28.8429 52.7006L24.9876 54.4948C24.1825 54.8694 23.7799 55.0567 23.4854 54.8873C23.1911 54.7181 23.1911 54.2992 23.1911 53.4612V45.0051Z" fill="#4275EF"/>
</svg>
