<svg width="64" height="64" viewBox="0 0 64 64" fill="none" xmlns="http://www.w3.org/2000/svg">
<path d="M53.762 22.5179C53.65 22.3989 53.531 22.2799 53.412 22.1679C53.293 22.0559 53.181 21.9299 53.062 21.8179C52.943 21.7059 52.831 21.5799 52.712 21.4679C52.593 21.3559 52.481 21.2299 52.362 21.1179C52.243 21.0059 52.131 20.8799 52.012 20.7679C51.893 20.6559 51.781 20.5299 51.662 20.4179C51.543 20.3059 51.431 20.1799 51.312 20.0679C54.7841 23.4802 56.7732 28.1223 56.849 32.9899C56.849 44.5889 45.075 54.0249 30.599 54.0249C22.493 54.0249 15.241 51.0639 10.418 46.4229L10.768 46.7729L11.118 47.1229L11.468 47.4729L11.818 47.8229L12.168 48.1729L12.518 48.5229L12.868 48.8729C17.684 53.7099 25.097 56.8249 33.399 56.8249C47.875 56.8249 59.649 47.3889 59.649 35.8249C59.649 30.8829 57.521 26.1999 53.762 22.5179Z" fill="black"/>
<path d="M55.0996 32.9901C55.0996 43.6371 44.1306 52.2681 30.5996 52.2681C17.0686 52.2681 6.09961 43.6371 6.09961 32.9901C6.09961 26.3891 10.2996 20.5581 16.7536 17.1001C23.2076 13.6421 27.2256 10.1001 30.5996 10.1001C33.9736 10.1001 36.8576 12.9911 44.4456 17.1001C50.8996 20.5581 55.0996 26.3891 55.0996 32.9901Z" fill="#FBF0DF"/>
<path d="M55.0996 32.9903C55.0962 31.6226 54.9078 30.2616 54.5396 28.9443C52.6286 52.2543 24.1946 53.3743 13.0156 46.4023C18.0409 50.2974 24.2423 52.3662 30.5996 52.2683C44.1096 52.2683 55.0996 43.6233 55.0996 32.9903Z" fill="#F6DECE"/>
<path d="M21.1706 15.8191C24.2996 13.9431 28.4576 10.4221 32.5456 10.4151C31.9167 10.2118 31.2605 10.1056 30.5996 10.1001C28.9056 10.1001 27.0996 10.9751 24.8246 12.2911C24.0336 12.7531 23.2146 13.2641 22.3466 13.7961C20.7156 14.8041 18.8466 15.9451 16.7466 17.0861C10.0826 20.6911 6.09961 26.6341 6.09961 32.9901C6.09961 33.2701 6.09961 33.5501 6.09961 33.8231C10.3416 18.8361 18.0486 17.6951 21.1706 15.8191Z" fill="#FFFEFC"/>
<path fill-rule="evenodd" clip-rule="evenodd" d="M28.5839 11.8709C28.5937 13.5238 28.2467 15.1593 27.5666 16.6657C26.8864 18.1722 25.8892 19.5142 24.6429 20.5999C24.4469 20.7749 24.6009 21.1109 24.8529 21.0129C27.2119 20.0959 30.3969 17.3519 29.0529 11.8149C28.9969 11.4999 28.5839 11.5839 28.5839 11.8709ZM30.1729 11.8709C31.0294 13.2684 31.5736 14.8346 31.7681 16.4621C31.9627 18.0896 31.8029 19.7399 31.2999 21.2999C31.2159 21.5449 31.5169 21.7549 31.6849 21.5519C33.2179 19.5919 34.5549 15.6999 30.5509 11.4999C30.3479 11.3179 30.0329 11.5979 30.1729 11.8429V11.8709ZM32.1049 11.7519C33.4462 12.7015 34.5683 13.9277 35.3955 15.3478C36.2226 16.7678 36.7356 18.3488 36.8999 19.9839C36.8928 20.0429 36.9087 20.1022 36.9442 20.1498C36.9798 20.1973 37.0322 20.2294 37.0907 20.2393C37.1493 20.2492 37.2093 20.2362 37.2585 20.203C37.3077 20.1698 37.3422 20.1189 37.3549 20.0609C37.9989 17.6179 37.6349 13.4529 32.3359 11.2899C32.0559 11.1779 31.8739 11.5559 32.1049 11.7239V11.7519ZM19.1829 19.0319C20.7784 18.5553 22.2556 17.7479 23.5184 16.6625C24.7811 15.577 25.8011 14.2378 26.5119 12.7319C26.6379 12.4799 27.0369 12.5779 26.9739 12.8579C25.7629 18.4579 21.7099 19.6269 19.1899 19.4729C18.9239 19.4799 18.9309 19.1089 19.1829 19.0319Z" fill="#CCBEA7"/>
<path d="M30.5996 54.0251C16.1236 54.0251 4.34961 44.5891 4.34961 32.9901C4.34961 25.9901 8.67561 19.4591 15.9206 15.5461C18.0206 14.4261 19.8196 13.2991 21.4226 12.3121C22.3046 11.7661 23.1376 11.2551 23.9426 10.7791C26.3996 9.3231 28.4996 8.3501 30.5996 8.3501C32.6996 8.3501 34.5336 9.1901 36.8296 10.5481C37.5296 10.9471 38.2296 11.3811 38.9786 11.8571C40.7216 12.9351 42.6886 14.1531 45.2786 15.5461C52.5236 19.4591 56.8496 25.9831 56.8496 32.9901C56.8496 44.5891 45.0756 54.0251 30.5996 54.0251ZM30.5996 10.1001C28.9056 10.1001 27.0996 10.9751 24.8246 12.2911C24.0336 12.7531 23.2146 13.2641 22.3466 13.7961C20.7156 14.8041 18.8466 15.9451 16.7466 17.0861C10.0826 20.6911 6.09961 26.6341 6.09961 32.9901C6.09961 43.6231 17.0896 52.2751 30.5996 52.2751C44.1096 52.2751 55.0996 43.6231 55.0996 32.9901C55.0996 26.6341 51.1166 20.6911 44.4456 17.1001C41.7996 15.7001 39.7346 14.3841 38.0616 13.3481C37.2986 12.8791 36.5986 12.4451 35.9616 12.0601C33.8406 10.8001 32.2936 10.1001 30.5996 10.1001Z" fill="black"/>
<path d="M35.5347 38.0999C35.2203 39.3879 34.5044 40.5425 33.4907 41.3969C32.7297 42.1347 31.7444 42.5978 30.6907 42.7129C29.6054 42.616 28.5856 42.1518 27.7997 41.3969C26.7963 40.5385 26.0906 39.3843 25.7837 38.0999C25.7736 38.0237 25.781 37.9461 25.8054 37.8732C25.8298 37.8002 25.8707 37.7339 25.9247 37.6791C25.9788 37.6244 26.0446 37.5828 26.1173 37.5574C26.1899 37.5321 26.2674 37.5237 26.3437 37.5329H34.9817C35.0575 37.5249 35.1342 37.5341 35.2059 37.56C35.2777 37.5858 35.3426 37.6276 35.3958 37.6822C35.4491 37.7368 35.4892 37.8027 35.5133 37.8751C35.5374 37.9475 35.5447 38.0243 35.5347 38.0999Z" fill="#B71422"/>
<path d="M27.7991 41.4534C28.5833 42.2087 29.5995 42.6773 30.6831 42.7834C31.7642 42.6758 32.7777 42.2073 33.5601 41.4534C33.8104 41.2201 34.0442 40.9699 34.2601 40.7044C33.8289 40.2152 33.3021 39.8194 32.7122 39.5413C32.1224 39.2632 31.4819 39.1088 30.8301 39.0874C30.1327 39.1039 29.4497 39.2897 28.84 39.6287C28.2303 39.9677 27.7121 40.4497 27.3301 41.0334C27.4911 41.1804 27.6311 41.3204 27.7991 41.4534Z" fill="#FF6164"/>
<path d="M27.9117 40.9003C28.2588 40.4517 28.703 40.0876 29.211 39.8355C29.719 39.5833 30.2776 39.4495 30.8447 39.4443C31.893 39.4752 32.8918 39.8972 33.6447 40.6273C33.8057 40.4523 33.9597 40.2703 34.1067 40.0883C33.2162 39.2402 32.0393 38.758 30.8097 38.7373C30.1526 38.743 29.5049 38.894 28.9131 39.1797C28.3212 39.4653 27.8 39.8784 27.3867 40.3893C27.5522 40.5691 27.7275 40.7397 27.9117 40.9003Z" fill="black"/>
<path d="M30.6627 43.1331C29.4962 43.0309 28.3985 42.5376 27.5477 41.7331C26.4641 40.8166 25.7014 39.5782 25.3707 38.1981C25.347 38.0752 25.351 37.9486 25.3825 37.8275C25.414 37.7064 25.4721 37.5939 25.5527 37.4981C25.6486 37.3823 25.7698 37.2899 25.9069 37.228C26.0439 37.1661 26.1934 37.1364 26.3437 37.1411H34.9817C35.1318 37.1379 35.2807 37.1684 35.4176 37.2301C35.5544 37.2919 35.6758 37.3834 35.7727 37.4981C35.8525 37.5942 35.9096 37.707 35.9399 37.8282C35.9702 37.9493 35.9729 38.0758 35.9477 38.1981C35.6169 39.5782 34.8543 40.8166 33.7707 41.7331C32.9217 42.5361 31.8267 43.0294 30.6627 43.1331ZM26.3437 37.9531C26.2317 37.9531 26.2037 38.0021 26.1967 38.0161C26.4926 39.2129 27.1619 40.2843 28.1077 41.0751C28.7993 41.7564 29.6984 42.1875 30.6627 42.3001C31.6245 42.1888 32.5226 41.7631 33.2177 41.0891C34.1605 40.297 34.8272 39.2258 35.1217 38.0301C35.1064 38.0077 35.0853 37.99 35.0606 37.9789C35.0359 37.9678 35.0086 37.9637 34.9817 37.9671L26.3437 37.9531Z" fill="black"/>
<path d="M41.2552 38.5343C43.5168 38.5343 45.3502 37.4562 45.3502 36.1263C45.3502 34.7964 43.5168 33.7183 41.2552 33.7183C38.9936 33.7183 37.1602 34.7964 37.1602 36.1263C37.1602 37.4562 38.9936 38.5343 41.2552 38.5343Z" fill="#FEBBD0"/>
<path d="M20.0657 38.5343C22.3273 38.5343 24.1607 37.4562 24.1607 36.1263C24.1607 34.7964 22.3273 33.7183 20.0657 33.7183C17.8041 33.7183 15.9707 34.7964 15.9707 36.1263C15.9707 37.4562 17.8041 38.5343 20.0657 38.5343Z" fill="#FEBBD0"/>
<path fill-rule="evenodd" clip-rule="evenodd" d="M21.9906 35.1603C22.7538 35.1617 23.5002 34.9366 24.1354 34.5137C24.7706 34.0907 25.266 33.4888 25.559 32.7842C25.852 32.0795 25.9294 31.3038 25.7814 30.5551C25.6333 29.8065 25.2665 29.1186 24.7274 28.5785C24.1883 28.0383 23.501 27.6703 22.7527 27.5209C22.0043 27.3715 21.2284 27.4475 20.5232 27.7392C19.8181 28.0309 19.2153 28.5253 18.7911 29.1597C18.367 29.7942 18.1406 30.5401 18.1406 31.3033C18.1406 32.325 18.546 33.305 19.2678 34.0281C19.9897 34.7513 20.9689 35.1584 21.9906 35.1603ZM39.3296 35.1603C40.0936 35.1658 40.8421 34.9443 41.48 34.5239C42.118 34.1035 42.6167 33.5031 42.9129 32.7988C43.2092 32.0945 43.2895 31.3182 43.1439 30.5681C42.9983 29.8181 42.6331 29.1282 42.0949 28.586C41.5566 28.0438 40.8694 27.6737 40.1204 27.5226C39.3715 27.3715 38.5946 27.4462 37.8882 27.7373C37.1817 28.0284 36.5777 28.5227 36.1526 29.1576C35.7276 29.7924 35.5006 30.5393 35.5006 31.3033C35.4988 32.322 35.9007 33.2998 36.6184 34.0228C37.336 34.7457 38.311 35.1547 39.3296 35.1603Z" fill="black"/>
<path fill-rule="evenodd" clip-rule="evenodd" d="M20.8014 31.5484C21.0883 31.5498 21.3691 31.466 21.6083 31.3076C21.8475 31.1492 22.0343 30.9234 22.1451 30.6588C22.2558 30.3941 22.2855 30.1025 22.2304 29.821C22.1753 29.5395 22.0378 29.2806 21.8355 29.0773C21.6331 28.8739 21.3749 28.7352 21.0936 28.6787C20.8124 28.6223 20.5207 28.6506 20.2555 28.76C19.9903 28.8695 19.7636 29.0552 19.6041 29.2936C19.4445 29.5321 19.3594 29.8125 19.3594 30.0994C19.3594 30.4825 19.5111 30.85 19.7813 31.1215C20.0515 31.393 20.4183 31.5465 20.8014 31.5484ZM38.1404 31.5484C38.4273 31.5498 38.7081 31.466 38.9473 31.3076C39.1865 31.1492 39.3733 30.9234 39.4841 30.6588C39.5948 30.3941 39.6245 30.1025 39.5694 29.821C39.5143 29.5395 39.3768 29.2806 39.1744 29.0773C38.9721 28.8739 38.7139 28.7352 38.4326 28.6787C38.1514 28.6223 37.8597 28.6506 37.5945 28.76C37.3293 28.8695 37.1026 29.0552 36.9431 29.2936C36.7835 29.5321 36.6984 29.8125 36.6984 30.0994C36.6983 30.4801 36.8481 30.8455 37.1153 31.1166C37.3825 31.3878 37.7457 31.5429 38.1264 31.5484H38.1404Z" fill="white"/>
</svg>
