<svg width="64" height="64" viewBox="0 0 64 64" fill="none" xmlns="http://www.w3.org/2000/svg">
<path fill-rule="evenodd" clip-rule="evenodd" d="M34.3906 4C36.894 4 39.0448 5.73449 39.5158 8.13325L39.7251 9.19992C40.5483 13.3925 44.9933 15.8964 49.1266 14.4955L50.1786 14.139C52.5434 13.3376 55.1585 14.2875 56.41 16.4025L58.3007 19.5973C59.5524 21.7125 59.088 24.3968 57.1942 25.9941L56.352 26.7044C53.0416 29.4963 53.0416 34.5038 56.352 37.2955L57.1942 38.0058C59.088 39.6032 59.5524 42.2875 58.3007 44.4027L56.4103 47.5974C55.1585 49.7125 52.5434 50.6624 50.1785 49.8609L49.1269 49.5043C44.9933 48.1033 40.5483 50.6071 39.7251 54.8L39.5158 55.8667C39.0448 58.2655 36.894 60 34.3906 60H30.6093C28.1061 60 25.9552 58.2655 25.4843 55.8669L25.2747 54.7995C24.4514 50.6071 20.0064 48.1033 15.873 49.5043L14.8216 49.8606C12.4568 50.6624 9.84165 49.7123 8.58989 47.5971L6.69936 44.4027C5.44764 42.2875 5.91194 39.6032 7.80576 38.0058L8.64812 37.2955C11.9583 34.5035 11.9583 29.4963 8.64812 26.7045L7.80576 25.9941C5.91194 24.3968 5.44764 21.7125 6.69936 19.5974L8.58996 16.4026C9.84168 14.2875 12.4567 13.3376 14.8215 14.1391L15.8732 14.4955C20.0065 15.8964 24.4514 13.3927 25.2747 9.20018L25.4843 8.13305C25.9552 5.73439 28.1058 4 30.6093 4H34.3906ZM32.5 40C36.8906 40 40.45 36.4182 40.45 32C40.45 27.5816 36.8906 24 32.5 24C28.1092 24 24.55 27.5816 24.55 32C24.55 36.4182 28.1092 40 32.5 40Z" fill="#4275EF"/>
</svg>
