<svg width="64" height="64" viewBox="0 0 64 64" fill="none" xmlns="http://www.w3.org/2000/svg">
<g clip-path="url(#clip0_6328_1911)">
<mask id="mask0_6328_1911" style="mask-type:luminance" maskUnits="userSpaceOnUse" x="0" y="0" width="64" height="64">
<path d="M64 0H0V64H64V0Z" fill="white"/>
</mask>
<g mask="url(#mask0_6328_1911)">
<path d="M31.9991 4C16.5373 4 4 16.5367 4 32C4 47.4632 16.5373 60 31.9991 60C47.4647 60 60 47.4634 60 32C60 16.5366 47.4647 4 31.9991 4ZM36.9155 44.855C35.783 46.112 35.1338 46.859 33.9113 48.0278C32.0609 49.7972 29.9599 50.2683 28.3263 48.5217C25.9783 46.0105 28.4409 38.371 28.501 38.0816C28.942 36.0511 29.8222 31.9929 29.8222 31.9929C29.8222 31.9929 27.9206 33.1571 26.7916 33.57C25.9589 33.8743 25.017 33.4748 24.7841 32.6694C24.5671 31.9232 24.74 31.4487 25.1969 30.9388C26.3294 29.6827 26.9785 28.9357 28.2011 27.767C30.0532 25.9966 32.1526 25.5266 33.786 27.2722C36.134 29.7833 34.4017 33.9149 33.7931 36.8424C33.7332 37.1326 32.2901 43.8018 32.2901 43.8018C32.2901 43.8018 34.1918 42.6374 35.3207 42.2238C36.155 41.9204 37.0971 42.3209 37.33 43.1253C37.5471 43.8716 37.3725 44.3461 36.9155 44.855ZM33.8778 23.2632C31.2653 23.4925 28.9632 21.5609 28.7339 18.9464C28.5064 16.3346 30.4379 14.0315 33.0505 13.804C35.6613 13.5747 37.9652 15.5081 38.1928 18.1199C38.4221 20.7318 36.4887 23.0357 33.8778 23.2632Z" fill="#3059E4"/>
</g>
</g>
<defs>
<clipPath id="clip0_6328_1911">
<rect width="64" height="64" fill="white"/>
</clipPath>
</defs>
</svg>
