<svg width="64" height="64" viewBox="0 0 64 64" fill="none" xmlns="http://www.w3.org/2000/svg">
<mask id="mask0_6334_2107" style="mask-type:luminance" maskUnits="userSpaceOnUse" x="7" y="4" width="50" height="56">
<path d="M30.2745 4.35425L8.32637 17.0225C7.50429 17.4966 7 18.3718 7 19.3179V44.6721C7 45.6187 7.50429 46.4934 8.32637 46.9675L30.2761 59.6456C31.0966 60.1181 32.1083 60.1181 32.9278 59.6456L54.8739 46.9675C55.6918 46.4934 56.1971 45.6182 56.1971 44.6721V19.3179C56.1971 18.3718 55.6918 17.4966 54.8687 17.0225L32.9257 4.35425C32.5142 4.11825 32.0557 4 31.5973 4C31.1388 4 30.6804 4.11825 30.2688 4.35425" fill="white"/>
</mask>
<g mask="url(#mask0_6334_2107)">
<path d="M78.3774 14.8715L16.5313 -15.4434L-15.1797 49.2467L46.6649 79.5631L78.3774 14.8715Z" fill="url(#paint0_linear_6334_2107)"/>
</g>
<mask id="mask1_6334_2107" style="mask-type:luminance" maskUnits="userSpaceOnUse" x="7" y="4" width="49" height="56">
<path d="M7.54297 46.282C7.75292 46.5545 8.01548 46.7905 8.32441 46.9676L27.152 57.8427L30.2882 59.6453C30.7571 59.9162 31.2916 60.0308 31.8167 59.9917C31.9918 59.9776 32.1668 59.9448 32.3377 59.8964L55.4861 17.5108C55.309 17.3181 55.1017 17.1566 54.8693 17.0211L40.498 8.72218L32.9014 4.35131C32.6857 4.22627 32.4518 4.13771 32.2137 4.0752L7.54297 46.282Z" fill="white"/>
</mask>
<g mask="url(#mask1_6334_2107)">
<path d="M-19.1973 23.8379L24.4725 82.9427L82.2264 40.2727L38.5541 -18.8306L-19.1973 23.8379Z" fill="url(#paint1_linear_6334_2107)"/>
</g>
<mask id="mask2_6334_2107" style="mask-type:luminance" maskUnits="userSpaceOnUse" x="8" y="4" width="49" height="56">
<path d="M31.3345 4.01478C30.9662 4.05125 30.6062 4.16586 30.2743 4.35444L8.38867 16.9862L31.9883 59.9709C32.3165 59.924 32.6395 59.8146 32.9312 59.6458L54.8794 46.9677C55.5566 46.5748 56.0203 45.9101 56.161 45.1568L32.1029 4.05802C31.9258 4.02311 31.7487 4.00488 31.5663 4.00488C31.4934 4.00488 31.4204 4.00852 31.3475 4.0153" fill="white"/>
</mask>
<g mask="url(#mask2_6334_2107)">
<path d="M8.38867 4.00488V59.9719H56.1521V4.00488H8.38867Z" fill="url(#paint2_linear_6334_2107)"/>
</g>
<defs>
<linearGradient id="paint0_linear_6334_2107" x1="47.4358" y1="-0.333615" x2="15.727" y2="64.3521" gradientUnits="userSpaceOnUse">
<stop offset="0.3" stop-color="#3E863D"/>
<stop offset="0.5" stop-color="#55934F"/>
<stop offset="0.8" stop-color="#5AAD45"/>
</linearGradient>
<linearGradient id="paint1_linear_6334_2107" x1="2.89929" y1="53.729" x2="60.6555" y2="11.0541" gradientUnits="userSpaceOnUse">
<stop offset="0.57" stop-color="#3E863D"/>
<stop offset="0.72" stop-color="#619857"/>
<stop offset="1" stop-color="#76AC64"/>
</linearGradient>
<linearGradient id="paint2_linear_6334_2107" x1="8.40479" y1="31.99" x2="56.1611" y2="31.99" gradientUnits="userSpaceOnUse">
<stop offset="0.16" stop-color="#6BBF47"/>
<stop offset="0.38" stop-color="#79B461"/>
<stop offset="0.47" stop-color="#75AC64"/>
<stop offset="0.7" stop-color="#659E5A"/>
<stop offset="0.9" stop-color="#3E863D"/>
</linearGradient>
</defs>
</svg>
