<svg width="64" height="64" viewBox="0 0 64 64" fill="none" xmlns="http://www.w3.org/2000/svg">
<path d="M34.018 28.6445L32.9636 29.1759C32.6646 29.3266 32.3127 29.3266 32.0137 29.1759L30.9593 28.6445L10.0922 18.1288C9.33062 17.7451 9.30428 16.6593 10.0464 16.2385L30.9593 4.38242C31.3899 4.13189 31.8782 4 32.3753 4C32.8725 4 33.3609 4.13189 33.7914 4.38242L54.7042 16.2385C55.4464 16.6593 55.4201 17.7451 54.6585 18.1288L45.3961 22.7966C45.232 22.8792 45.0364 22.8298 44.8648 22.7646L33.5365 17.0559C32.8764 16.7787 32.1367 16.7636 31.4659 17.0135C30.7952 17.2634 30.2431 17.7598 29.9204 18.403C29.5978 19.046 29.5284 19.7885 29.7264 20.481C29.9244 21.1735 30.3749 21.765 30.9877 22.1366L36.9808 25.1677C37.7542 25.5588 37.7637 26.6682 36.997 27.0727L34.018 28.6445ZM8.54686 20.5674C7.84013 20.202 7 20.7192 7 21.5198V45.4568C7.00086 45.9626 7.13506 46.459 7.38884 46.8954C7.64263 47.3317 8.0069 47.6923 8.44436 47.9401L29.5191 59.8615C30.227 60.2619 31.1009 59.7462 31.1009 58.928V32.8741C31.1009 32.4686 30.8736 32.0981 30.5138 31.9167L29.6849 31.499L8.54686 20.5674ZM58 19.6819C58 19.7403 57.9496 19.7814 57.8977 19.8076L47.236 25.1803C46.8762 25.3617 46.649 25.7323 46.649 26.1378V38.1496C46.649 38.9067 46.3506 39.6326 45.8195 40.1679C45.2884 40.7032 44.568 41.004 43.817 41.004C43.0658 41.004 42.3454 40.7032 41.8143 40.1679C41.2832 39.6326 40.9848 38.9067 40.9848 38.1496V30.0625C40.9848 29.2669 40.154 28.7493 39.4479 29.1051L34.4917 31.6027C34.1319 31.784 33.9046 32.1547 33.9046 32.5601V58.6141C33.9046 59.4323 34.7786 59.948 35.4865 59.5474L56.5613 47.6262C56.9732 47.3872 57.3188 47.0474 57.5663 46.6384C57.8137 46.2293 57.9551 45.7641 57.9773 45.2856V19.6859C57.9773 19.6613 58 19.6572 58 19.6819Z" fill="#3059E4"/>
</svg>
