<svg width="64" height="64" viewBox="0 0 64 64" fill="none" xmlns="http://www.w3.org/2000/svg">
<path fill-rule="evenodd" clip-rule="evenodd" d="M7.39692 33.2841C8.18689 34.075 8.18612 35.3566 7.39516 36.1465L6.98012 36.5612C6.62556 36.9153 6.62556 37.4884 6.98012 37.8425C7.33601 38.198 7.91404 38.198 8.26993 37.8425L12.8356 33.2822C13.6265 32.4924 14.9081 32.4932 15.6981 33.2841C16.4881 34.075 16.4873 35.3566 15.6964 36.1465L11.1307 40.7065C9.19428 42.6406 6.05577 42.6406 4.11935 40.7065C2.18157 38.7713 2.18157 35.6324 4.11935 33.6969L4.53441 33.2822C5.32535 32.4924 6.60692 32.4932 7.39692 33.2841ZM20.4971 35.9726C21.2875 36.7633 21.2875 38.0449 20.4971 38.8353L14.784 44.5484C13.9935 45.3388 12.7119 45.3388 11.9215 44.5484C11.131 43.7577 11.131 42.4764 11.9215 41.6857L17.6346 35.9726C18.425 35.1822 19.7066 35.1822 20.4971 35.9726ZM27.9881 43.4545C28.7785 44.2452 28.7785 45.5268 27.9881 46.3172L22.3141 51.991C21.5237 52.7814 20.2421 52.7814 19.4516 51.991C18.6611 51.2006 18.6611 49.919 19.4516 49.1286L25.1257 43.4545C25.9161 42.6641 27.1977 42.6641 27.9881 43.4545ZM19.4585 44.523C20.2401 45.3222 20.2259 46.6036 19.4267 47.3852L14.8129 51.8974C14.0137 52.679 12.7322 52.6646 11.9506 51.8654C11.1689 51.0662 11.1832 49.7849 11.9824 49.0033L16.5962 44.491C17.3954 43.7094 18.6769 43.7238 19.4585 44.523ZM30.6156 48.315C31.4057 49.106 31.4049 50.3876 30.614 51.1777L26.0482 55.7377C25.6937 56.0918 25.6937 56.6649 26.0482 57.019C26.4041 57.3745 26.9823 57.3745 27.338 57.019L27.7532 56.6044C28.5441 55.8145 29.8257 55.8153 30.6156 56.6062C31.4057 57.3972 31.4049 58.6788 30.614 59.4686L30.1988 59.8833C28.2625 61.8172 25.1239 61.8172 23.1875 59.8833C21.2497 57.9478 21.2497 54.8089 23.1875 52.8734L27.7532 48.3134C28.5441 47.5233 29.8257 47.5241 30.6156 48.315Z" fill="#4275EF"/>
<path d="M28.9234 14.4245L23.0896 20.2408C22.0173 21.3098 21.0336 22.2905 20.2568 23.177C19.7579 23.7463 19.2594 24.3694 18.8371 25.0579L18.7803 25.0013C18.6724 24.8937 18.6184 24.8398 18.5642 24.7873C17.5502 23.8034 16.3574 23.0211 15.0498 22.4824C14.9799 22.4536 14.909 22.4255 14.7671 22.3693L13.8985 22.0251C12.7218 21.5589 12.4082 20.044 13.3036 19.1514C15.8733 16.5895 18.9586 13.5135 20.4476 12.8957C21.7607 12.3509 23.1793 12.1696 24.5474 12.3718C25.801 12.557 26.9869 13.201 28.9234 14.4245Z" fill="#4275EF"/>
<path d="M38.8848 45.0486C39.355 45.5259 39.6672 45.8627 39.9494 46.223C40.3219 46.6982 40.655 47.203 40.9451 47.7321C41.2718 48.3278 41.5256 48.9641 42.0328 50.2369C42.4459 51.2729 43.8179 51.5467 44.615 50.7521L44.8078 50.5598C47.3774 47.9979 50.4627 44.9219 51.0822 43.4374C51.6288 42.1283 51.8107 40.7139 51.6078 39.3499C51.4219 38.1003 50.7763 36.9182 49.5494 34.9878L43.696 40.8235C42.5995 41.9169 41.5939 42.9195 40.6846 43.7049C40.1395 44.1755 39.5432 44.6459 38.8848 45.0486Z" fill="#4275EF"/>
<path fill-rule="evenodd" clip-rule="evenodd" d="M41.3385 38.3132L54.7508 24.9412C56.6825 23.0154 57.6484 22.0525 58.1569 20.8281C58.6657 19.6036 58.6657 18.2419 58.6657 15.5185V14.2174C58.6657 10.0295 58.6657 7.93552 57.3606 6.63451C56.0558 5.3335 53.9556 5.3335 49.755 5.3335H48.45C45.7182 5.3335 44.3524 5.3335 43.1244 5.84067C41.8961 6.34787 40.9305 7.31075 38.9988 9.23654L25.5863 22.6086C23.3292 24.8589 21.9297 26.2542 21.3878 27.6018C21.2166 28.0276 21.1309 28.4487 21.1309 28.8906C21.1309 30.7303 22.616 32.2111 25.5863 35.1724L25.9855 35.5703L30.6617 30.8244C31.3286 30.1476 32.418 30.1394 33.0948 30.8063C33.7716 31.4732 33.7798 32.5626 33.1129 33.2394L28.4222 37.9999L28.7366 38.3132C31.707 41.2746 33.1921 42.7551 35.0374 42.7551C35.4454 42.7551 35.8356 42.6828 36.2278 42.5383C37.6118 42.0287 39.0244 40.6202 41.3385 38.3132ZM47.6396 22.6096C45.8996 24.3443 43.0785 24.3443 41.3388 22.6096C39.5988 20.8749 39.5988 18.0624 41.3388 16.3277C43.0785 14.593 45.8996 14.593 47.6396 16.3277C49.3796 18.0624 49.3796 20.8749 47.6396 22.6096Z" fill="#4275EF"/>
</svg>
