<svg width="64" height="64" viewBox="0 0 64 64" fill="none" xmlns="http://www.w3.org/2000/svg">
<mask id="mask0_6_50" style="mask-type:luminance" maskUnits="userSpaceOnUse" x="4" y="4" width="56" height="56">
<path d="M60 4H4V60H60V4Z" fill="white"/>
</mask>
<g mask="url(#mask0_6_50)">
<path d="M17.2441 34.8436L33.7455 18.347L37.0449 21.6463L20.5435 38.1446L17.2441 34.8436Z" fill="#4275EF"/>
<path d="M17.2453 50.2435C16.662 50.8267 15.8707 51.1543 15.0458 51.1543C14.2208 51.1543 13.4296 50.8267 12.8463 50.2435L5.14624 42.545C4.563 41.9616 4.23535 41.1704 4.23535 40.3455C4.23535 39.5205 4.563 38.7293 5.14624 38.1459L12.8463 30.4444C13.4296 29.8611 14.2208 29.5334 15.0458 29.5334C15.8707 29.5334 16.662 29.8611 17.2453 30.4444L24.9453 38.1444C25.5286 38.7278 25.8562 39.5189 25.8562 40.3439C25.8562 41.1688 25.5286 41.96 24.9453 42.5435L17.2453 50.2435ZM42.5418 24.9455C42.2532 25.2344 41.9104 25.4636 41.5331 25.62C41.1558 25.7764 40.7514 25.8569 40.3431 25.8569C39.9346 25.8569 39.5302 25.7764 39.1529 25.62C38.7757 25.4636 38.4328 25.2344 38.1443 24.9455L30.4443 17.2455C29.861 16.6621 29.5333 15.8708 29.5333 15.0459C29.5333 14.2209 29.861 13.4298 30.4443 12.8464L38.1458 5.14636C38.7292 4.56312 39.5204 4.23547 40.3453 4.23547C41.1703 4.23547 41.9615 4.56312 42.5449 5.14636L50.2433 12.8464C50.8268 13.4296 51.1547 14.2207 51.155 15.0456C51.1553 15.8706 50.8279 16.6618 50.2449 17.2455L42.5418 24.9455Z" fill="#4275EF"/>
<path d="M23.2945 19.9957L21.095 13.3955C20.3981 11.3079 18.8939 11.1944 17.7941 12.2941L13.395 16.6948C12.2936 17.7946 12.4072 19.2988 14.4948 19.9957L21.095 22.1953L23.2945 19.9957Z" fill="#4275EF"/>
<path d="M31.546 38.1429C30.9624 38.7261 30.1712 39.0538 29.346 39.054C28.521 39.0543 27.7295 38.7272 27.1454 38.1445L16.146 27.1451C15.857 26.8562 15.6278 26.5132 15.4713 26.1356C15.3149 25.758 15.2344 25.3534 15.2344 24.9447C15.2344 24.5361 15.3149 24.1314 15.4713 23.7539C15.6278 23.3764 15.857 23.0333 16.146 22.7445L22.7448 16.1457C23.0336 15.8567 23.3767 15.6275 23.7542 15.471C24.1317 15.3146 24.5364 15.2341 24.945 15.2341C25.3538 15.2341 25.7584 15.3146 26.1359 15.471C26.5135 15.6275 26.8565 15.8567 27.1454 16.1457L38.1448 27.1451C39.358 28.3599 39.358 30.3293 38.1432 31.5457L31.546 38.1429Z" fill="#4275EF"/>
<path d="M36.6905 36.752C33.6541 39.7899 29.2207 40.2815 26.7909 37.8533C24.3612 35.4235 28.1537 34.2911 31.1917 31.2531C34.2297 28.2151 35.3621 24.4242 37.7919 26.8524C40.2201 29.2822 39.7285 33.714 36.6905 36.752Z" fill="#4275EF"/>
<path d="M47.4932 35.3943C44.1954 32.0934 39.5318 32.3594 36.4939 35.3943C33.4574 38.4338 33.1946 43.0943 36.4939 46.3936L47.4932 35.3943ZM43.0941 39.795L46.3934 45.2938L40.8946 41.9946L43.0941 39.795Z" fill="#4275EF"/>
<path d="M47.2652 46.1647C47.1207 46.3091 46.9493 46.4237 46.7606 46.5019C46.5719 46.58 46.3696 46.6203 46.1654 46.6203C45.9612 46.6203 45.7589 46.58 45.5702 46.5019C45.3815 46.4237 45.2101 46.3091 45.0656 46.1647C44.9212 46.0203 44.8066 45.8489 44.7285 45.6601C44.6504 45.4715 44.6101 45.2692 44.6101 45.065C44.6101 44.8607 44.6504 44.6584 44.7285 44.4698C44.8066 44.281 44.9212 44.1096 45.0656 43.9652C45.3573 43.6735 45.7529 43.5096 46.1654 43.5096C46.5779 43.5096 46.9735 43.6735 47.2652 43.9652C47.5568 44.2569 47.7207 44.6525 47.7207 45.065C47.7207 45.4774 47.5568 45.873 47.2652 46.1647Z" fill="#4275EF"/>
<path d="M10.6417 32.647L12.8444 30.4444L24.945 42.5419L22.7455 44.743L10.6417 32.647ZM30.444 12.8448L32.6435 10.6453L44.7426 22.7444L42.543 24.9439L30.444 12.8448ZM5.14282 38.1475L7.34237 35.9464L19.4446 48.0424L17.245 50.2419L5.14282 38.1475ZM35.9397 7.34748L38.1377 5.14636L50.2415 17.2408L48.0434 19.4404L35.9397 7.34748Z" fill="#4275EF"/>
<path d="M16.9215 15.8238C16.7769 15.9682 16.6053 16.0828 16.4164 16.1608C16.2275 16.2389 16.0251 16.279 15.8207 16.2788C15.6163 16.2788 15.4139 16.2383 15.2252 16.1599C15.0363 16.0816 14.8648 15.9668 14.7205 15.8223C14.576 15.6776 14.4615 15.506 14.3834 15.317C14.3054 15.1281 14.2652 14.9257 14.2654 14.7213C14.2655 14.5169 14.3059 14.3146 14.3843 14.1258C14.4626 13.937 14.5774 13.7656 14.722 13.6211C15.0139 13.3294 15.4097 13.1657 15.8224 13.1658C16.235 13.1659 16.6307 13.33 16.9223 13.6219C17.214 13.9138 17.3778 14.3096 17.3777 14.7222C17.3775 15.1349 17.2134 15.5321 16.9215 15.8238Z" fill="#4275EF"/>
<path d="M40.8384 51.3371L40.8414 51.2577C40.8516 51.0537 40.9019 50.8535 40.9894 50.6689C41.0769 50.4842 41.2 50.3187 41.3515 50.1815C41.503 50.0444 41.6801 49.9386 41.8725 49.87C42.065 49.8013 42.2692 49.7713 42.4732 49.7815C42.4982 49.7831 45.827 49.8795 48.3844 47.3237C50.9308 44.7757 50.839 41.4561 50.8422 41.4111C50.8271 41.2044 50.8536 40.9968 50.92 40.8006C50.9863 40.6042 51.0912 40.4232 51.2285 40.268C51.3658 40.1128 51.5326 39.9866 51.7194 39.8968C51.9061 39.807 52.1089 39.7554 52.3158 39.745C52.5228 39.7346 52.7297 39.7657 52.9244 39.8364C53.1192 39.9071 53.2979 40.0161 53.45 40.1568C53.6021 40.2975 53.7245 40.4671 53.8102 40.6559C53.8957 40.8445 53.9428 41.0484 53.9486 41.2555C53.9672 41.4453 54.14 45.9657 50.584 49.5217C47.0248 53.0793 42.509 52.8973 42.3177 52.8879C41.9193 52.8684 41.5436 52.6966 41.2683 52.4079C40.993 52.1193 40.8391 51.736 40.8384 51.3371Z" fill="#4275EF"/>
<path d="M41.7031 56.8718C41.7027 56.6233 41.7619 56.3783 41.8758 56.1574C41.9897 55.9366 42.155 55.7463 42.3576 55.6025C42.5604 55.4587 42.7947 55.3658 43.0407 55.3314C43.2869 55.297 43.5377 55.3222 43.7721 55.4049C43.9385 55.4578 48.2473 56.794 53.0493 51.9905C57.9136 47.1278 56.8045 42.4611 56.7547 42.2651C56.6534 41.8667 56.7135 41.4443 56.9221 41.09C57.1308 40.7357 57.4709 40.4782 57.8685 40.3736C58.2641 40.2684 58.6852 40.324 59.0399 40.5283C59.3947 40.7327 59.6541 41.069 59.7616 41.464C59.8331 41.7285 61.4369 48.0051 55.2505 54.19C49.0065 60.4371 42.9989 58.4305 42.7469 58.3402C42.4421 58.2341 42.1778 58.0356 41.9908 57.7725C41.8038 57.5094 41.7032 57.1946 41.7031 56.8718Z" fill="#4275EF"/>
</g>
</svg>
