<svg width="64" height="64" viewBox="0 0 64 64" fill="none" xmlns="http://www.w3.org/2000/svg">
<mask id="mask0_6328_1938" style="mask-type:luminance" maskUnits="userSpaceOnUse" x="4" y="4" width="56" height="56">
<path d="M60 4H4V60H60V4Z" fill="white"/>
</mask>
<g mask="url(#mask0_6328_1938)">
<path d="M17.2432 34.8435L33.7445 18.3469L37.0439 21.6462L20.5425 38.1444L17.2432 34.8435Z" fill="#3059E4"/>
<path d="M17.2444 50.2433C16.661 50.8266 15.8697 51.1542 15.0448 51.1542C14.2198 51.1542 13.4287 50.8266 12.8453 50.2433L5.14526 42.5449C4.56202 41.9615 4.23438 41.1703 4.23438 40.3453C4.23438 39.5204 4.56202 38.7292 5.14526 38.1458L12.8453 30.4443C13.4287 29.861 14.2198 29.5333 15.0448 29.5333C15.8697 29.5333 16.661 29.861 17.2444 30.4443L24.9444 38.1443C25.5276 38.7276 25.8552 39.5188 25.8552 40.3438C25.8552 41.1687 25.5276 41.9599 24.9444 42.5433L17.2444 50.2433ZM42.5408 24.9453C42.2522 25.2343 41.9094 25.4635 41.5322 25.6199C41.1549 25.7762 40.7504 25.8567 40.3421 25.8567C39.9336 25.8567 39.5292 25.7762 39.1519 25.6199C38.7747 25.4635 38.4319 25.2343 38.1433 24.9453L30.4433 17.2453C29.86 16.662 29.5323 15.8707 29.5323 15.0458C29.5323 14.2208 29.86 13.4296 30.4433 12.8463L38.1448 5.14624C38.7282 4.563 39.5194 4.23535 40.3444 4.23535C41.1693 4.23535 41.9605 4.563 42.5439 5.14624L50.2424 12.8463C50.8258 13.4295 51.1538 14.2206 51.154 15.0455C51.1544 15.8705 50.8269 16.6617 50.2439 17.2453L42.5408 24.9453Z" fill="#3059E4"/>
<path d="M23.2936 19.9956L21.094 13.3953C20.3971 11.3078 18.8929 11.1942 17.7931 12.294L13.394 16.6947C12.2927 17.7945 12.4062 19.2987 14.4938 19.9956L21.094 22.1951L23.2936 19.9956Z" fill="#3059E4"/>
<path d="M31.5451 38.1428C30.9614 38.7259 30.1702 39.0536 29.345 39.0539C28.52 39.0542 27.7285 38.7271 27.1444 38.1443L16.1451 27.145C15.856 26.856 15.6268 26.513 15.4703 26.1355C15.3139 25.7579 15.2334 25.3533 15.2334 24.9446C15.2334 24.536 15.3139 24.1313 15.4703 23.7537C15.6268 23.3763 15.856 23.0332 16.1451 22.7443L22.7438 16.1456C23.0326 15.8566 23.3757 15.6273 23.7532 15.4709C24.1307 15.3144 24.5354 15.2339 24.9441 15.2339C25.3528 15.2339 25.7574 15.3144 26.1349 15.4709C26.5125 15.6273 26.8555 15.8566 27.1444 16.1456L38.1438 27.145C39.3571 28.3598 39.3571 30.3292 38.1422 31.5456L31.5451 38.1428Z" fill="#3059E4"/>
<path d="M36.6895 36.7519C33.6531 39.7898 29.2197 40.2814 26.79 37.8531C24.3603 35.4234 28.1527 34.2909 31.1907 31.2529C34.2287 28.2149 35.3611 24.4241 37.7909 26.8523C40.2191 29.2821 39.7275 33.7139 36.6895 36.7519Z" fill="#3059E4"/>
<path d="M47.4922 35.3941C44.1945 32.0933 39.5309 32.3593 36.4929 35.3941C33.4564 38.4337 33.1936 43.0941 36.4929 46.3935L47.4922 35.3941ZM43.0931 39.7949L46.3925 45.2937L40.8936 41.9944L43.0931 39.7949Z" fill="#3059E4"/>
<path d="M47.2642 46.1646C47.1198 46.309 46.9484 46.4236 46.7596 46.5018C46.571 46.5799 46.3687 46.6201 46.1644 46.6201C45.9602 46.6201 45.7579 46.5799 45.5693 46.5018C45.3805 46.4236 45.2091 46.309 45.0647 46.1646C44.9202 46.0202 44.8057 45.8487 44.7275 45.66C44.6494 45.4714 44.6091 45.2691 44.6091 45.0648C44.6091 44.8606 44.6494 44.6583 44.7275 44.4697C44.8057 44.2809 44.9202 44.1095 45.0647 43.965C45.3563 43.6734 45.752 43.5095 46.1644 43.5095C46.5769 43.5095 46.9725 43.6734 47.2642 43.965C47.5559 44.2568 47.7198 44.6524 47.7198 45.0648C47.7198 45.4773 47.5559 45.8729 47.2642 46.1646Z" fill="#3059E4"/>
<path d="M10.6407 32.6469L12.8434 30.4443L24.944 42.5418L22.7445 44.7429L10.6407 32.6469ZM30.443 12.8447L32.6425 10.6451L44.7416 22.7443L42.542 24.9438L30.443 12.8447ZM5.14185 38.1473L7.34139 35.9463L19.4436 48.0423L17.244 50.2418L5.14185 38.1473ZM35.9387 7.34736L38.1367 5.14624L50.2405 17.2407L48.0425 19.4403L35.9387 7.34736Z" fill="#3059E4"/>
<path d="M16.9206 15.8236C16.7759 15.9681 16.6043 16.0826 16.4154 16.1607C16.2265 16.2387 16.0241 16.2789 15.8197 16.2787C15.6153 16.2786 15.4129 16.2382 15.2242 16.1598C15.0354 16.0815 14.8639 15.9667 14.7195 15.8221C14.575 15.6775 14.4605 15.5058 14.3824 15.3169C14.3044 15.128 14.2642 14.9256 14.2644 14.7212C14.2645 14.5168 14.3049 14.3144 14.3833 14.1257C14.4616 13.9369 14.5764 13.7655 14.7211 13.621C15.0129 13.3293 15.4087 13.1656 15.8214 13.1656C16.234 13.1658 16.6297 13.3299 16.9213 13.6218C17.2131 13.9137 17.3769 14.3094 17.3767 14.7221C17.3765 15.1347 17.2125 15.532 16.9206 15.8236Z" fill="#3059E4"/>
<path d="M40.8374 51.3369L40.8405 51.2576C40.8506 51.0535 40.9009 50.8534 40.9884 50.6688C41.0759 50.4841 41.199 50.3185 41.3505 50.1814C41.5021 50.0443 41.6792 49.9384 41.8716 49.8698C42.0641 49.8011 42.2682 49.7711 42.4723 49.7814C42.4972 49.7829 45.826 49.8794 48.3834 47.3236C50.9298 44.7756 50.838 41.456 50.8412 41.4109C50.8261 41.2043 50.8527 40.9967 50.919 40.8005C50.9853 40.6041 51.0902 40.4231 51.2275 40.2678C51.3648 40.1127 51.5317 39.9864 51.7184 39.8967C51.9051 39.8069 52.1079 39.7553 52.3149 39.7449C52.5218 39.7345 52.7287 39.7656 52.9234 39.8363C53.1182 39.907 53.2969 40.0159 53.449 40.1566C53.6011 40.2973 53.7235 40.467 53.8092 40.6557C53.8948 40.8444 53.9418 41.0483 53.9476 41.2554C53.9663 41.4452 54.139 45.9656 50.583 49.5216C47.0238 53.0792 42.508 52.8972 42.3167 52.8878C41.9183 52.8683 41.5427 52.6964 41.2673 52.4078C40.992 52.1192 40.8381 51.7359 40.8374 51.3369Z" fill="#3059E4"/>
<path d="M41.7022 56.8716C41.7017 56.6231 41.761 56.3781 41.8748 56.1573C41.9887 55.9364 42.154 55.7461 42.3567 55.6024C42.5594 55.4586 42.7937 55.3657 43.0398 55.3313C43.2859 55.2969 43.5367 55.3221 43.7711 55.4048C43.9375 55.4576 48.2464 56.7939 53.0484 51.9904C57.9126 47.1276 56.8035 42.461 56.7537 42.265C56.6524 41.8665 56.7125 41.4442 56.9211 41.0899C57.1298 40.7356 57.4699 40.4781 57.8675 40.3734C58.2631 40.2683 58.6842 40.3239 59.039 40.5282C59.3937 40.7325 59.6531 41.0689 59.7606 41.4639C59.8321 41.7284 61.4359 48.005 55.2495 54.1899C49.0055 60.437 42.9979 58.4304 42.7459 58.3401C42.4411 58.2339 42.1768 58.0355 41.9899 57.7724C41.8028 57.5093 41.7022 57.1944 41.7022 56.8716Z" fill="#3059E4"/>
</g>
</svg>
