<svg width="64" height="64" viewBox="0 0 64 64" fill="none" xmlns="http://www.w3.org/2000/svg">
<path d="M51.4696 24.1049C51.019 23.1224 50.2887 22.2881 49.3665 21.7022C48.4442 21.1162 47.369 20.8033 46.2699 20.8011H41.0986L44.8985 11.6733C45.2379 10.8352 45.3658 9.92922 45.2713 9.03224C45.1768 8.13527 44.8627 7.27396 44.3556 6.52151C43.8136 5.74201 43.0848 5.10466 42.2331 4.66533C41.3813 4.22601 40.4326 3.9981 39.4701 4.0016H27.0706C25.8986 3.97416 24.7465 4.30064 23.7703 4.93674C22.7942 5.57284 22.0412 6.48779 21.6137 7.55748L12.3854 29.9568C12.055 30.7932 11.9344 31.6952 12.0338 32.5869C12.1333 33.4785 12.4498 34.3337 12.9569 35.0806C13.4988 35.8601 14.2277 36.4974 15.0794 36.9367C15.9312 37.376 16.8799 37.604 17.8424 37.6005H25.7278L20.5566 56.4718C20.3843 57.0877 20.432 57.7428 20.6919 58.3285C20.9517 58.9141 21.408 59.3951 21.9851 59.6916C22.4307 59.9011 22.9195 60.0065 23.4137 59.9997C23.8262 59.9997 24.234 59.9121 24.6089 59.743C24.9838 59.5738 25.3168 59.3271 25.5849 59.0197L50.7268 29.9847C51.3993 29.1708 51.8254 28.1883 51.9567 27.1489C52.088 26.1096 51.9193 25.055 51.4696 24.1049Z" fill="#4275EF"/>
</svg>
