<svg width="64" height="64" viewBox="0 0 64 64" fill="none" xmlns="http://www.w3.org/2000/svg">
<path d="M56.4608 48.8325C53.5742 49.518 52.1128 50.1495 48.5407 52.4768C42.9479 56.085 36.8499 57.7629 36.8499 57.7629C36.8499 57.7629 36.3448 58.5206 34.8834 58.8634C32.3577 59.4768 22.8499 60 21.984 60.018C19.6566 60.0361 18.2314 59.4227 17.8345 58.4665C16.6257 55.5799 19.5664 54.317 19.5664 54.317C19.5664 54.317 18.9169 53.9201 18.5381 53.5593C18.1953 53.2165 17.8345 52.5309 17.7262 52.7835C17.2752 53.884 17.0407 56.5721 15.8319 57.7809C14.1721 59.4587 11.0329 58.8995 9.17467 57.9252C7.13601 56.8428 9.319 54.2989 9.319 54.2989C9.319 54.2989 8.21849 54.9484 7.33447 53.6134C6.54065 52.3866 5.80096 50.2938 5.99942 47.7139C6.25199 44.7371 9.5355 41.8866 9.5355 41.8866C9.5355 41.8866 8.95818 37.5386 10.8525 33.0825C12.5664 29.0232 17.185 25.7577 17.185 25.7577C17.185 25.7577 13.3061 21.4819 14.7494 17.6031C15.6876 15.0773 16.0664 15.0953 16.3731 14.9871C17.4556 14.5721 18.502 14.1211 19.2778 13.2732C23.1566 9.08761 28.0999 9.88142 28.0999 9.88142C28.0999 9.88142 30.4092 2.79122 32.5742 4.18039C33.2417 4.61338 35.6412 9.95359 35.6412 9.95359C35.6412 9.95359 38.203 8.45616 38.4917 9.01544C40.0432 12.0283 40.2236 17.7835 39.5381 21.2835C38.3834 27.0567 35.4968 30.1598 34.3422 32.1082C34.0716 32.5593 37.4453 33.9845 39.5742 39.884C41.5407 45.2783 39.7907 49.8067 40.0974 50.3118C40.1515 50.402 40.1695 50.4381 40.1695 50.4381C40.1695 50.4381 42.4247 50.6185 46.953 47.8221C49.3705 46.3247 52.2391 44.6469 55.5046 44.6108C58.6618 44.5567 58.8242 48.2732 56.4608 48.8325Z" fill="#2C8EBB"/>
</svg>
