<svg width="1200" height="630" viewBox="0 0 1200 630" fill="none" xmlns="http://www.w3.org/2000/svg">
<path d="M0 32C0 14.3269 14.3269 0 32 0H1168C1185.67 0 1200 14.3269 1200 32V598C1200 615.673 1185.67 630 1168 630H32C14.3269 630 0 615.673 0 598V32Z" fill="#030712"/>
<path fill-rule="evenodd" clip-rule="evenodd" d="M257.561 421.243C282.741 330.643 282.013 330.238 300.205 265.652L304.577 268.195C306.958 269.571 308.901 268.438 308.901 265.685V234.894C313.726 217.875 317.516 204.726 318.617 200.767H338.332L371.082 231.307L349.578 250.01L365.852 267.709L258.638 421.243C258.112 422.109 257.383 421.915 257.545 421.243H257.561Z" fill="white"/>
<path fill-rule="evenodd" clip-rule="evenodd" d="M269.277 225.986C270.249 225.986 271.034 226.52 271.034 227.201V242.989C271.034 243.636 270.305 244.187 269.334 244.187H242.858C241.887 244.187 241.077 243.645 241.077 242.973V227.184C241.077 226.52 241.887 225.986 242.858 225.986H269.334H269.277ZM301.955 208.498L272.823 225.419C273.164 225.946 273.366 226.553 273.366 227.201V242.989C273.366 243.798 273.042 244.527 272.475 245.134L301.866 262.218C303.809 263.392 305.509 262.436 305.509 260.113V210.627C305.509 208.295 303.809 207.34 301.866 208.506L301.955 208.498ZM238.697 242.989V227.201C238.697 226.553 238.899 225.946 239.231 225.419L210.1 208.498C208.1 207.34 206.457 208.295 206.457 210.619V260.089C206.457 262.437 208.092 263.327 210.1 262.194L239.531 245.11C239.004 244.462 238.689 243.734 238.689 242.924L238.697 242.989Z" fill="white"/>
<path fill-rule="evenodd" clip-rule="evenodd" d="M253.344 421.243H254.429C229.248 330.643 229.977 330.239 211.792 265.653L207.42 268.195C205.04 269.572 203.089 268.438 203.089 265.685V234.894C198.239 217.867 194.434 204.719 193.3 200.751H173.626L140.916 231.3L162.412 250.002L146.138 267.701L253.336 421.211L253.344 421.243Z" fill="white"/>
<path d="M255.198 277.142C259.589 277.142 263.149 273.56 263.149 269.142C263.149 264.724 259.589 261.143 255.198 261.143C250.807 261.143 247.247 264.724 247.247 269.142C247.247 273.56 250.807 277.142 255.198 277.142Z" fill="white"/>
<path d="M255.198 324.724C259.589 324.724 263.149 321.143 263.149 316.725C263.149 312.307 259.589 308.726 255.198 308.726C250.807 308.726 247.247 312.307 247.247 316.725C247.247 321.143 250.807 324.724 255.198 324.724Z" fill="white"/>
<path d="M255.198 372.306C259.589 372.306 263.149 368.725 263.149 364.307C263.149 359.889 259.589 356.308 255.198 356.308C250.807 356.308 247.247 359.889 247.247 364.307C247.247 368.725 250.807 372.306 255.198 372.306Z" fill="white"/>
<path fill-rule="evenodd" clip-rule="evenodd" d="M397.437 370.293C391.899 368.35 387.948 366.043 385.592 363.379C383.211 360.675 382.029 357.752 382.029 354.554C382.029 351.372 382.92 348.668 384.701 346.555C386.466 344.449 388.814 343.365 391.721 343.365C394.636 343.365 397.226 344.231 399.461 345.955C401.696 347.696 402.821 350.125 402.821 353.323C402.821 356.513 400.878 359.104 396.992 361.217C400.206 363.97 405.104 365.347 411.703 365.347C425.985 365.347 433.118 361.298 433.118 353.121C433.118 348.02 428.6 343.972 419.557 340.895C415.832 339.6 412.092 338.223 408.343 336.847C404.586 335.39 401.299 333.284 398.514 330.532C395.729 327.779 394.206 324.297 393.955 320.33C393.955 314.501 395.858 309.724 399.655 305.675C406.796 297.984 417.565 294.259 431.839 294.259C438.818 294.259 445.036 295.555 450.445 298.227C455.853 300.898 458.557 304.299 458.557 308.59C458.557 312.8 457.472 315.796 455.319 317.658C453.149 319.52 450.607 320.411 447.74 320.411C444.874 320.411 442.437 319.682 440.437 318.063C438.438 316.444 437.466 314.339 437.466 311.505C437.466 308.671 439.085 306.323 442.389 304.218C440.332 302.761 436.818 302.032 431.839 302.032C426.868 302.032 422.366 302.761 418.374 304.218C414.326 305.675 412.302 307.699 412.302 310.209C412.302 312.719 413.759 314.824 416.674 316.525C419.589 318.225 423.07 319.763 427.2 321.221C431.329 322.678 435.458 324.297 439.587 326.159C443.716 328.022 447.279 330.694 450.194 334.175C453.108 337.657 454.566 341.948 454.566 347.048C454.566 352.149 452.461 356.683 448.331 360.893C440.478 368.747 429.71 372.633 416.107 372.633C408.902 372.633 402.505 371.662 397 369.719L397.162 369.962L397.437 370.293ZM486.094 297.385C494.813 270.342 503.679 247.672 512.731 229.415L528.438 230.686C527.515 233.39 525.232 239.932 521.597 250.214C513.743 272.966 508.667 288.673 506.375 297.336H526.293L524.285 305.675H503.72C495.996 329.641 492.101 344.296 492.101 349.477C492.101 354.659 492.644 357.25 493.72 357.25C494.805 357.25 495.728 357.007 496.595 356.602C498.862 355.307 503.784 349.154 511.306 338.061L516.488 342.757C510.869 353.04 505.031 360.651 499.024 365.589C493.032 370.528 488.093 373.038 484.207 373.038C480.321 373.038 477.39 371.662 475.382 368.99C473.39 366.237 472.419 362.756 472.419 358.545C472.419 347.777 476.2 330.127 483.721 305.594H470.411L472.467 297.174H486.312L486.11 297.012L486.094 297.385ZM531.742 327.301L523.564 322.362C527.774 314.994 533.037 308.542 539.352 302.963C545.667 297.393 551.335 294.624 556.274 294.624C564.37 294.624 568.5 298.251 568.5 305.554C568.5 308.631 566.395 315.998 562.265 327.795C558.136 339.616 556.031 347.065 556.031 350.141C556.031 353.299 556.274 355.323 556.679 356.214C557.165 357.185 558.055 357.59 559.513 357.59C567.204 357.59 575.139 354.756 583.316 348.927C591.494 343.178 596.837 336.782 599.266 329.738L608.172 303.91C609.063 301.319 610.601 299.214 612.545 297.676C614.488 296.219 616.35 295.409 618.212 295.409C620.026 295.409 621.483 296.057 622.617 297.19C623.75 298.405 624.349 299.943 624.349 301.886C624.349 303.829 623.944 305.934 623.216 308.04L613.581 336.134C608.261 352.732 600.06 369.087 588.887 385.118C598.602 386.171 607.266 387.871 614.876 390.381L613.824 397.425C602.165 395.077 591.882 393.7 582.895 393.296C574.718 403.902 566.297 412.322 557.715 418.638C549.133 424.953 541.635 428.111 535.288 428.111C528.892 428.111 524.115 426.815 520.957 424.224C517.718 421.633 516.18 418.152 516.18 413.699C516.18 409.246 517.88 405.197 521.281 401.473C524.6 397.83 529.134 394.834 534.826 392.567C546.323 387.79 559.521 385.118 574.418 384.47C575.576 383.175 578.466 378.398 582.919 370.221C587.316 362.124 589.801 356.942 590.125 354.837C575.147 367.549 561.982 373.864 550.574 373.864C546.04 373.864 542.558 372.326 540.453 369.087C538.348 365.929 537.296 362.043 537.296 357.347C537.296 352.732 539.077 344.798 542.615 333.463C546.178 322.208 547.959 315.812 547.959 314.193C547.959 312.655 547.554 311.926 546.874 311.926C546.169 311.926 545.336 312.088 544.526 312.493C543.684 312.865 542.85 313.464 542.065 314.274L539.83 316.541C539.83 316.541 538.413 318.241 537.603 319.537L535.741 322.451C533.96 325.261 532.826 327.115 532.341 328.038L532.017 327.633L531.742 327.301ZM568.419 392.858C561.618 393.279 554.655 394.518 547.53 396.542C533.847 400.429 527.046 404.995 527.046 410.225C527.046 413.367 528.989 414.921 532.875 414.921C536.761 414.921 543.158 412.112 551.902 406.485C560.646 400.858 566.233 396.332 568.5 392.85H568.581L568.419 392.858ZM674.232 202.534H694.764C691.137 208.793 685.567 222.678 678.053 244.191C670.524 265.703 663.666 287.345 657.448 309.124C651.213 330.872 648.137 344.182 648.137 349.056C648.137 353.914 648.736 356.368 649.918 356.368C653.497 356.368 659.01 351.024 666.532 340.304L671.876 345.389C668.151 351.825 664.103 357.234 659.812 361.614C652.201 369.411 646.048 373.289 641.271 373.289C632.608 373.289 628.316 368.107 628.316 357.712C628.316 342.247 633.417 317.893 643.7 284.568C654.071 251.243 664.273 223.974 674.313 202.656L674.232 202.55V202.534ZM701.857 346.198C702.367 355.914 708.917 360.772 721.515 360.772C726.163 360.772 731.004 359.452 736.032 356.789C741.052 354.117 745.141 350.975 748.274 347.34L753.723 350.886C746.711 362.642 735.506 369.832 720.147 372.447C716.827 372.949 713.508 373.2 710.431 373.2C701.282 373.2 693.752 370.123 687.599 364.132C681.527 358.06 678.531 350.692 678.531 341.948C678.531 333.203 681.203 325.188 686.546 317.739C691.89 310.29 698.529 304.542 706.545 300.494C714.56 296.445 722.414 294.34 730.187 294.34C737.959 294.34 744.76 296.122 750.428 299.603C756.176 303.084 759.091 307.942 759.172 313.934C759.334 319.925 757.553 325.026 753.99 329.479C750.428 333.77 745.813 337.171 740.226 339.438C729.215 343.891 718.366 346.077 707.678 346.077L702.254 345.834L702.173 345.915L701.857 346.198ZM701.104 339.219C710.415 338.895 717.945 337.381 723.693 334.726C729.361 332.078 733.328 329.018 735.595 325.601C737.781 322.176 738.915 318.589 738.915 314.833C738.915 311.068 737.943 308.274 736 306.453C734.057 304.631 731.952 303.732 729.766 303.732C724.341 303.732 719.321 305.594 714.787 309.319C710.253 313.043 706.771 317.658 704.424 323.002C701.995 328.346 700.861 333.77 700.861 339.195H700.942L701.104 339.219ZM815.192 202.55H835.724C832.081 208.785 826.511 222.67 818.997 244.183C811.467 265.703 804.61 287.337 798.383 309.116C792.165 330.872 789.072 344.19 789.072 349.048C789.072 353.906 789.655 356.351 790.837 356.351C794.384 356.351 799.922 350.983 807.435 340.239L812.763 345.316C809.038 351.744 805.031 357.153 800.699 361.549C793.072 369.322 786.911 373.208 782.207 373.208C773.543 373.208 769.276 368.01 769.276 357.606C769.276 342.142 774.296 317.755 784.579 284.446C794.861 251.137 805.071 223.828 815.111 202.534H815.167L815.192 202.55ZM842.121 373.208C838.526 373.208 835.708 372.107 833.684 369.905C831.644 367.719 830.64 364.691 830.64 360.837C830.64 356.999 831.636 351.753 833.611 345.13C835.595 338.49 837.578 332.467 839.578 327.05C841.57 321.625 842.558 317.982 842.558 316.201C842.558 314.339 841.975 313.448 840.777 313.448C837.821 313.448 833.052 319.277 826.462 330.936L817.961 325.998C830.397 305.028 841.805 294.502 852.209 294.502C859.293 294.502 862.856 298.955 862.856 307.942C862.856 310.533 862.006 314.743 860.313 320.492L851.189 346.563C850.249 348.992 849.78 351.178 849.78 353.202C849.78 355.226 850.549 356.117 852.071 356.117C854.937 356.117 860.232 350.773 867.924 340.166L873.235 345.105C868.62 353.526 863.196 360.327 856.88 365.347C850.565 370.447 845.626 372.957 842.064 372.957L842.121 373.208ZM878.182 257.121C878.182 260.546 877.049 263.655 874.758 266.432C872.474 269.241 869.414 270.666 865.511 270.666C861.625 270.666 858.751 269.533 856.799 267.201C854.856 264.877 853.804 261.954 853.804 258.376C853.804 254.813 855.018 251.737 857.447 248.968C859.795 246.215 862.953 244.855 866.758 244.855C870.483 244.855 873.397 246.101 875.259 248.482C877.122 250.862 878.093 253.842 878.093 257.242L878.012 257.129L878.182 257.121ZM915.345 335.543C932.996 308.242 948.832 294.591 962.872 294.591C967.608 294.591 971.146 296.032 973.527 298.907C975.891 301.781 977.073 305.449 977.073 309.837C977.073 314.209 975.105 321.844 971.179 332.669C967.236 343.486 965.284 350.19 965.284 352.797C965.284 355.388 965.908 356.683 967.187 356.683C968.871 356.683 971.357 354.902 974.668 351.421C977.963 347.858 980.886 344.215 983.429 340.328L988.772 345.429C983.672 354.659 978.166 361.541 972.094 366.318C966.021 371.014 961.163 373.281 957.358 373.281C953.553 373.281 950.719 371.986 948.533 369.557C946.428 367.047 945.375 363.646 945.375 359.355C945.375 355.064 947.075 348.02 950.476 338.223C953.876 328.427 955.577 321.544 955.577 317.415C955.577 313.286 954.2 311.181 951.367 311.181C948.128 311.181 944.404 313.205 939.95 317.334C935.497 321.464 931.287 326.483 927.158 332.394C920.519 341.867 913.799 352.797 906.998 365.104L903.597 371.176H885.785L889.671 359.193C897.039 337.171 900.682 324.135 900.682 320.087C900.682 315.958 900.035 313.934 898.658 313.934C896.229 313.934 893.315 316.849 889.914 322.678C889.185 324.054 888.538 325.107 888.052 325.917C887.566 326.726 886.918 327.698 886.352 328.831C885.704 329.965 885.299 330.694 885.137 330.936L876.636 325.998C883.194 315.229 889.266 307.376 894.772 302.194C900.197 297.093 905.864 294.583 911.613 294.583C914.204 294.583 916.471 295.636 918.333 297.822C920.195 300.008 921.199 302.599 921.199 305.756C921.199 308.914 920.899 311.91 920.414 314.905C919.928 317.901 919.442 320.411 918.794 322.354L916.689 330.046C915.799 333.147 915.313 334.92 915.232 335.333L914.989 335.09L915.345 335.543ZM1012.69 297.385C1021.39 270.342 1030.27 247.672 1039.3 229.415L1055.03 230.686C1054.09 233.39 1051.81 239.932 1048.18 250.214C1040.32 272.966 1035.25 288.673 1032.95 297.336H1052.87L1050.86 305.675H1030.36C1022.58 329.641 1018.75 344.296 1018.75 349.477C1018.75 354.659 1019.31 357.25 1020.36 357.25C1021.5 357.25 1022.39 357.007 1023.28 356.602C1025.55 355.307 1030.49 349.154 1038.02 338.061L1043.2 342.757C1037.53 353.04 1031.78 360.651 1025.71 365.589C1019.72 370.528 1014.78 373.038 1010.89 373.038C1007.01 373.038 1004.09 371.662 1002.07 368.99C1000.12 366.237 999.152 362.756 999.152 358.545C999.152 347.777 1002.96 330.127 1010.49 305.594H997.209L999.314 297.174H1013.16L1012.92 297.012L1012.69 297.385Z" fill="white"/>
</svg>
