<svg width="64" height="64" viewBox="0 0 64 64" fill="none" xmlns="http://www.w3.org/2000/svg">
<path d="M47.3333 8C49.5424 8 51.3333 9.79085 51.3333 12V41.8851L52.0475 41.1712C53.6096 39.6091 56.1421 39.6091 57.7043 41.1712C59.2664 42.7331 59.2664 45.2659 57.7043 46.828L50.1619 54.3704C48.5997 55.9325 46.0669 55.9325 44.5048 54.3704L36.9624 46.828C35.4003 45.2659 35.4003 42.7331 36.9624 41.1712C38.5245 39.6091 41.0571 39.6091 42.6192 41.1712L43.3333 41.8851V12C43.3333 9.79085 45.1243 8 47.3333 8ZM28.6667 45.3333C30.8757 45.3333 32.6667 47.1243 32.6667 49.3333C32.6667 51.4125 31.0802 53.1212 29.0519 53.315L28.6667 53.3333H10C7.79085 53.3333 6 51.5424 6 49.3333C6 47.2542 7.58636 45.5455 9.61477 45.3516L10 45.3333H28.6667ZM34 26.6667C36.2091 26.6667 38 28.4576 38 30.6667C38 32.7458 36.4136 34.4545 34.3852 34.6484L34 34.6667H10C7.79085 34.6667 6 32.8757 6 30.6667C6 28.5875 7.58636 26.8788 9.61477 26.685L10 26.6667H34ZM34 8C36.2091 8 38 9.79085 38 12C38 14.2091 36.2091 16 34 16H10C7.79085 16 6 14.2091 6 12C6 9.79085 7.79085 8 10 8H34Z" fill="#3B82F6"/>
</svg>
