<svg width="64" height="64" viewBox="0 0 64 64" fill="none" xmlns="http://www.w3.org/2000/svg">
<path d="M32.4352 62.287C39.4352 37.2598 39.232 37.1462 44.2912 19.3014L45.5072 20.0054C46.1696 20.3846 46.7104 20.0726 46.7104 19.311V10.799C48.0544 6.0982 49.104 2.463 49.4144 1.375H54.8944L64 9.807L58.0192 14.975L62.5424 19.8662L32.736 62.287C32.592 62.527 32.3888 62.4726 32.4352 62.287ZM35.6912 8.3414C35.9632 8.3414 36.1808 8.4902 36.1808 8.6774V13.0374C36.1808 13.2198 35.9616 13.3686 35.6912 13.3686H28.3312C28.0592 13.3686 27.84 13.2198 27.84 13.0358V8.6742C27.84 8.4902 28.0592 8.3382 28.3296 8.3382H35.6896L35.6912 8.3414ZM44.7792 3.5126L36.68 8.1878C36.7728 8.3318 36.8304 8.4966 36.8304 8.6758V13.039C36.8304 13.263 36.7408 13.4678 36.5968 13.631L44.7776 18.3542C45.3344 18.6774 45.792 18.4134 45.792 17.7702V4.0982C45.792 3.4534 45.3376 3.191 44.7792 3.5126ZM27.1888 13.039V8.6742C27.1888 8.495 27.2464 8.3302 27.3392 8.1878L19.24 3.5094C18.6832 3.1894 18.2256 3.4518 18.2256 4.095V17.767C18.2256 18.4102 18.6832 18.6742 19.2416 18.351L27.4208 13.6278C27.2768 13.463 27.1904 13.2598 27.1904 13.0358L27.1888 13.039ZM31.264 62.287H31.5648C24.5664 37.2598 24.768 37.1462 19.7088 19.3014L18.4928 20.0054C17.832 20.3846 17.2896 20.0726 17.2896 19.311V10.799C15.9456 6.0998 14.896 2.463 14.5856 1.375H9.1072L0 9.807L5.9792 14.975L1.456 19.8678L31.264 62.287ZM31.7776 22.4774C32.9988 22.4774 33.9888 21.4874 33.9888 20.2662C33.9888 19.045 32.9988 18.055 31.7776 18.055C30.5564 18.055 29.5664 19.045 29.5664 20.2662C29.5664 21.4874 30.5564 22.4774 31.7776 22.4774ZM31.7776 35.6214C32.9988 35.6214 33.9888 34.6314 33.9888 33.4102C33.9888 32.189 32.9988 31.199 31.7776 31.199C30.5564 31.199 29.5664 32.189 29.5664 33.4102C29.5664 34.6314 30.5564 35.6214 31.7776 35.6214ZM31.7776 48.7686C32.9988 48.7686 33.9888 47.7786 33.9888 46.5574C33.9888 45.3362 32.9988 44.3462 31.7776 44.3462C30.5564 44.3462 29.5664 45.3362 29.5664 46.5574C29.5664 47.7786 30.5564 48.7686 31.7776 48.7686Z" fill="white"/>
</svg>
