<svg width="64" height="64" viewBox="0 0 64 64" fill="none" xmlns="http://www.w3.org/2000/svg">
<path fill-rule="evenodd" clip-rule="evenodd" d="M32.3811 58.3012C38.5054 36.4012 38.3277 36.302 42.7548 20.6871L43.8193 21.3019C44.3977 21.636 44.8711 21.3628 44.8711 20.6963V13.2496C46.0459 9.1352 46.9665 5.95595 47.2362 5H52.0325L60.0001 12.3812L54.7673 16.9034L58.724 21.1813L32.6457 58.3007C32.5182 58.5103 32.3407 58.4624 32.3811 58.3007V58.3012ZM35.23 11.0977C35.4656 11.0977 35.6579 11.2279 35.6579 11.3895V15.2058C35.6579 15.367 35.4656 15.4981 35.2302 15.4981H28.7879C28.5512 15.4981 28.3594 15.3676 28.3594 15.2058V11.3895C28.3594 11.2284 28.551 11.0977 28.7879 11.0977H35.2302H35.23Z" fill="#CFD8DC"/>
<path fill-rule="evenodd" clip-rule="evenodd" d="M43.1806 6.87338L36.0936 10.9647C36.1758 11.0897 36.2258 11.2338 36.2258 11.3909V15.2074C36.2258 15.4054 36.149 15.5839 36.0225 15.728L43.1806 19.8603C43.6686 20.1421 44.0689 19.9116 44.0689 19.3487V7.38554C44.0689 6.82214 43.6687 6.59229 43.1806 6.87338ZM27.7887 15.2071V11.3908C27.7887 11.2345 27.8387 11.0904 27.92 10.9654L20.8329 6.87338C20.3452 6.59229 19.9453 6.82228 19.9453 7.38554V19.3486C19.9453 19.9113 20.3447 20.1424 20.8329 19.8597L27.9906 15.7269C27.8648 15.5828 27.7885 15.4048 27.7885 15.2067L27.7887 15.2071Z" fill="#CFD8DC"/>
<path fill-rule="evenodd" clip-rule="evenodd" d="M31.3544 58.3012H31.619C25.4956 36.4012 25.6719 36.302 21.2453 20.6871L20.1806 21.3019C19.6025 21.636 19.129 21.3628 19.129 20.6963V13.2496C17.9539 9.1352 17.0337 5.95595 16.7632 5H11.9674L4 12.3812L9.23224 16.9034L5.27551 21.1813L31.3544 58.3012Z" fill="#CFD8DC"/>
<path d="M31.8059 23.4673C32.8742 23.4673 33.7402 22.6013 33.7402 21.533C33.7402 20.4647 32.8742 19.5986 31.8059 19.5986C30.7376 19.5986 29.8716 20.4647 29.8716 21.533C29.8716 22.6013 30.7376 23.4673 31.8059 23.4673Z" fill="#CFD8DC"/>
<path d="M31.8059 34.9688C32.8742 34.9688 33.7402 34.1027 33.7402 33.0344C33.7402 31.9661 32.8742 31.1001 31.8059 31.1001C30.7376 31.1001 29.8716 31.9661 29.8716 33.0344C29.8716 34.1027 30.7376 34.9688 31.8059 34.9688Z" fill="#CFD8DC"/>
<path d="M31.8058 46.4704C32.874 46.4704 33.74 45.6045 33.74 44.5362C33.74 43.468 32.874 42.6021 31.8058 42.6021C30.7376 42.6021 29.8716 43.468 29.8716 44.5362C29.8716 45.6045 30.7376 46.4704 31.8058 46.4704Z" fill="#CFD8DC"/>
</svg>
