<svg width="64" height="64" viewBox="0 0 64 64" fill="none" xmlns="http://www.w3.org/2000/svg">
<g clip-path="url(#clip0_5235_6360)">
<path d="M26.7502 60.0002C26.1972 60.003 25.6564 59.837 25.2002 59.5243C24.7441 59.2115 24.3942 58.7671 24.1974 58.2502L19.8399 46.919C19.7516 46.6906 19.6166 46.4833 19.4435 46.3102C19.2704 46.1371 19.0631 46.0021 18.8347 45.9138L7.50021 41.553C6.9839 41.3549 6.53981 41.0048 6.22655 40.549C5.9133 40.0933 5.74561 39.5532 5.74561 39.0002C5.74561 38.4472 5.9133 37.9071 6.22655 37.4514C6.53981 36.9956 6.9839 36.6456 7.50021 36.4474L18.8315 32.0899C19.0598 32.0016 19.2672 31.8666 19.4403 31.6935C19.6134 31.5204 19.7484 31.3131 19.8366 31.0847L24.1974 19.7502C24.3956 19.2339 24.7456 18.7898 25.2014 18.4766C25.6571 18.1633 26.1972 17.9956 26.7502 17.9956C27.3032 17.9956 27.8433 18.1633 28.299 18.4766C28.7548 18.7898 29.1049 19.2339 29.303 19.7502L33.6605 31.0815C33.7488 31.3098 33.8838 31.5172 34.0569 31.6903C34.23 31.8634 34.4373 31.9984 34.6657 32.0866L45.9313 36.4211C46.4686 36.6203 46.9315 36.9802 47.257 37.4519C47.5825 37.9235 47.7547 38.484 47.7502 39.0571C47.7419 39.6005 47.5706 40.1289 47.2586 40.5739C46.9466 41.0189 46.5082 41.36 46.0002 41.553L34.669 45.9105C34.4406 45.9988 34.2333 46.1338 34.0602 46.3069C33.8871 46.48 33.7521 46.6873 33.6638 46.9157L29.303 58.2502C29.1062 58.7671 28.7563 59.2115 28.3002 59.5243C27.844 59.837 27.3033 60.003 26.7502 60.0002Z" fill="#EAB308"/>
<path d="M13.6248 23.2502C13.3006 23.2502 12.9839 23.1519 12.7166 22.9684C12.4493 22.7849 12.2439 22.5247 12.1274 22.2221L10.2834 17.4271C10.2434 17.3222 10.1817 17.227 10.1024 17.1476C10.023 17.0682 9.92779 17.0066 9.82292 16.9666L5.02792 15.1225C4.72536 15.006 4.4652 14.8006 4.28171 14.5333C4.09822 14.266 4 13.9494 4 13.6252C4 13.301 4.09822 12.9844 4.28171 12.7171C4.4652 12.4498 4.72536 12.2444 5.02792 12.1278L9.82292 10.2838C9.92768 10.2436 10.0228 10.1819 10.1022 10.1025C10.1815 10.0232 10.2432 9.92808 10.2834 9.82331L12.111 5.07097C12.2141 4.79119 12.3915 4.54479 12.6241 4.35825C12.8567 4.1717 13.1357 4.05208 13.4312 4.01222C13.786 3.96909 14.145 4.04563 14.4513 4.2297C14.7576 4.41377 14.9937 4.69483 15.1221 5.02831L16.9662 9.82331C17.0063 9.92808 17.0681 10.0232 17.1474 10.1025C17.2268 10.1819 17.3219 10.2436 17.4267 10.2838L22.2217 12.1278C22.5242 12.2444 22.7844 12.4498 22.9679 12.7171C23.1514 12.9844 23.2496 13.301 23.2496 13.6252C23.2496 13.9494 23.1514 14.266 22.9679 14.5333C22.7844 14.8006 22.5242 15.006 22.2217 15.1225L17.4267 16.9666C17.3218 17.0066 17.2266 17.0682 17.1472 17.1476C17.0679 17.227 17.0062 17.3222 16.9662 17.4271L15.1221 22.2221C15.0057 22.5247 14.8002 22.7849 14.5329 22.9684C14.2657 23.1519 13.949 23.2502 13.6248 23.2502Z" fill="#EAB308"/>
<path d="M47.7501 32.0002C47.3963 32.0001 47.051 31.8928 46.7595 31.6924C46.4679 31.4921 46.244 31.2081 46.1171 30.878L43.619 24.3844C43.575 24.27 43.5075 24.166 43.4209 24.0794C43.3342 23.9927 43.2303 23.9252 43.1158 23.8813L36.6222 21.3831C36.2923 21.256 36.0087 21.032 35.8086 20.7405C35.6085 20.449 35.5015 20.1037 35.5015 19.7502C35.5015 19.3966 35.6085 19.0514 35.8086 18.7599C36.0087 18.4684 36.2923 18.2443 36.6222 18.1172L43.1158 15.6191C43.2303 15.5751 43.3342 15.5076 43.4209 15.421C43.5075 15.3343 43.575 15.2304 43.619 15.1159L46.0985 8.66829C46.2117 8.36339 46.4054 8.09487 46.6591 7.8913C46.9127 7.68772 47.2168 7.55671 47.539 7.5122C47.9261 7.46534 48.3178 7.54911 48.6519 7.75024C48.9859 7.95136 49.2433 8.2583 49.383 8.62235L51.8812 15.1159C51.9251 15.2304 51.9926 15.3343 52.0793 15.421C52.1659 15.5076 52.2699 15.5751 52.3843 15.6191L58.8779 18.1172C59.2078 18.2443 59.4914 18.4684 59.6915 18.7599C59.8916 19.0514 59.9987 19.3966 59.9987 19.7502C59.9987 20.1037 59.8916 20.449 59.6915 20.7405C59.4914 21.032 59.2078 21.256 58.8779 21.3831L52.3843 23.8813C52.2699 23.9252 52.1659 23.9927 52.0793 24.0794C51.9926 24.166 51.9251 24.27 51.8812 24.3844L49.383 30.878C49.2561 31.2081 49.0322 31.4921 48.7407 31.6924C48.4491 31.8928 48.1038 32.0001 47.7501 32.0002Z" fill="#EAB308"/>
</g>
<defs>
<clipPath id="clip0_5235_6360">
<rect width="56" height="56" fill="white" transform="translate(4 4)"/>
</clipPath>
</defs>
</svg>
