<svg width="640" height="220" viewBox="0 0 640 220" fill="none" xmlns="http://www.w3.org/2000/svg">
<path d="M0 32C0 14.3269 14.3269 0 32 0H608C625.673 0 640 14.3269 640 32V188C640 205.673 625.673 220 608 220H32C14.3269 220 0 205.673 0 188V32Z" fill="#030712"/>
<path fill-rule="evenodd" clip-rule="evenodd" d="M185.892 152.423C195.767 116.538 195.482 116.378 202.617 90.7963L204.332 91.8032C205.265 92.3484 206.027 91.8994 206.027 90.8091V78.6133C207.92 71.8724 209.406 66.6644 209.838 65.0962H217.57L230.415 77.1926L221.981 84.6005L228.363 91.6108L186.314 152.423C186.108 152.766 185.822 152.689 185.885 152.423H185.892Z" fill="white"/>
<path fill-rule="evenodd" clip-rule="evenodd" d="M190.487 75.0848C190.868 75.0848 191.176 75.2964 191.176 75.5658V81.8193C191.176 82.0758 190.89 82.2939 190.509 82.2939H180.125C179.744 82.2939 179.427 82.079 179.427 81.8129V75.5594C179.427 75.2964 179.744 75.0848 180.125 75.0848H190.509H190.487ZM203.303 68.1579L191.878 74.8603C192.011 75.0687 192.09 75.3093 192.09 75.5658V81.8193C192.09 82.14 191.963 82.4286 191.741 82.6691L203.268 89.4356C204.03 89.9006 204.697 89.5222 204.697 88.6019V69.0013C204.697 68.0777 204.03 67.6993 203.268 68.1611L203.303 68.1579ZM178.493 81.8193V75.5658C178.493 75.3093 178.573 75.0687 178.703 74.8603L167.278 68.1579C166.493 67.6993 165.849 68.0777 165.849 68.9981V88.5922C165.849 89.5222 166.49 89.875 167.278 89.426L178.82 82.6595C178.614 82.4029 178.49 82.1143 178.49 81.7936L178.493 81.8193Z" fill="white"/>
<path fill-rule="evenodd" clip-rule="evenodd" d="M184.238 152.423H184.663C174.788 116.538 175.073 116.378 167.941 90.7963L166.227 91.8033C165.293 92.3485 164.528 91.8995 164.528 90.8092V78.6133C162.626 71.8692 161.133 66.6612 160.689 65.0898H152.972L140.144 77.1895L148.574 84.5974L142.192 91.6077L184.235 152.41L184.238 152.423Z" fill="white"/>
<path d="M184.965 95.3466C186.687 95.3466 188.083 93.928 188.083 92.1782C188.083 90.4283 186.687 89.0098 184.965 89.0098C183.243 89.0098 181.847 90.4283 181.847 92.1782C181.847 93.928 183.243 95.3466 184.965 95.3466Z" fill="white"/>
<path d="M184.965 114.193C186.687 114.193 188.083 112.775 188.083 111.025C188.083 109.275 186.687 107.856 184.965 107.856C183.243 107.856 181.847 109.275 181.847 111.025C181.847 112.775 183.243 114.193 184.965 114.193Z" fill="white"/>
<path d="M184.965 133.04C186.687 133.04 188.083 131.621 188.083 129.872C188.083 128.122 186.687 126.703 184.965 126.703C183.243 126.703 181.847 128.122 181.847 129.872C181.847 131.621 183.243 133.04 184.965 133.04Z" fill="white"/>
<path fill-rule="evenodd" clip-rule="evenodd" d="M240.751 132.243C238.579 131.473 237.029 130.559 236.105 129.504C235.172 128.433 234.708 127.275 234.708 126.009C234.708 124.748 235.058 123.677 235.756 122.84C236.448 122.006 237.369 121.577 238.509 121.577C239.652 121.577 240.669 121.92 241.545 122.603C242.421 123.292 242.863 124.254 242.863 125.521C242.863 126.785 242.101 127.811 240.576 128.648C241.837 129.738 243.758 130.283 246.346 130.283C251.948 130.283 254.745 128.68 254.745 125.441C254.745 123.421 252.973 121.817 249.426 120.599C247.966 120.085 246.499 119.54 245.028 118.995C243.555 118.418 242.266 117.584 241.173 116.494C240.081 115.403 239.484 114.024 239.386 112.453C239.386 110.144 240.132 108.252 241.621 106.649C244.422 103.602 248.645 102.127 254.244 102.127C256.981 102.127 259.42 102.64 261.541 103.698C263.662 104.756 264.722 106.103 264.722 107.803C264.722 109.471 264.297 110.657 263.452 111.395C262.601 112.132 261.604 112.485 260.48 112.485C259.356 112.485 258.4 112.196 257.616 111.555C256.832 110.914 256.45 110.08 256.45 108.958C256.45 107.835 257.086 106.905 258.381 106.071C257.575 105.494 256.196 105.205 254.244 105.205C252.294 105.205 250.528 105.494 248.963 106.071C247.375 106.649 246.581 107.45 246.581 108.444C246.581 109.439 247.153 110.272 248.296 110.946C249.439 111.619 250.805 112.229 252.424 112.806C254.044 113.383 255.663 114.024 257.282 114.762C258.902 115.5 260.299 116.558 261.442 117.937C262.585 119.316 263.157 121.015 263.157 123.036C263.157 125.056 262.331 126.852 260.712 128.52C257.632 131.63 253.408 133.17 248.074 133.17C245.248 133.17 242.739 132.785 240.58 132.015L240.643 132.111L240.751 132.243ZM275.522 103.365C278.942 92.6537 282.419 83.6743 285.969 76.4428L292.13 76.9463C291.768 78.0174 290.872 80.6086 289.446 84.6813C286.366 93.6927 284.375 99.9141 283.477 103.345H291.288L290.501 106.649H282.435C279.406 116.141 277.878 121.945 277.878 123.998C277.878 126.05 278.091 127.076 278.513 127.076C278.939 127.076 279.301 126.98 279.641 126.82C280.53 126.307 282.46 123.87 285.41 119.476L287.443 121.336C285.239 125.409 282.95 128.423 280.593 130.38C278.244 132.336 276.306 133.33 274.782 133.33C273.258 133.33 272.109 132.785 271.321 131.726C270.54 130.636 270.159 129.257 270.159 127.59C270.159 123.324 271.642 116.333 274.592 106.616H269.371L270.178 103.281H275.608L275.529 103.217L275.522 103.365ZM293.425 115.214L290.218 113.258C291.869 110.34 293.933 107.784 296.41 105.574C298.887 103.368 301.11 102.271 303.047 102.271C306.222 102.271 307.842 103.708 307.842 106.6C307.842 107.819 307.016 110.737 305.397 115.41C303.777 120.092 302.952 123.042 302.952 124.261C302.952 125.512 303.047 126.313 303.206 126.666C303.396 127.051 303.745 127.211 304.317 127.211C307.334 127.211 310.446 126.089 313.653 123.78C316.86 121.503 318.956 118.969 319.908 116.179L323.401 105.949C323.751 104.923 324.354 104.089 325.116 103.48C325.878 102.903 326.609 102.582 327.339 102.582C328.05 102.582 328.622 102.839 329.066 103.288C329.511 103.769 329.746 104.378 329.746 105.148C329.746 105.917 329.587 106.751 329.301 107.585L325.523 118.713C323.436 125.287 320.22 131.765 315.838 138.115C319.648 138.532 323.046 139.205 326.031 140.199L325.618 142.989C321.045 142.059 317.012 141.514 313.488 141.354C310.281 145.555 306.978 148.89 303.612 151.391C300.246 153.893 297.306 155.143 294.816 155.143C292.308 155.143 290.434 154.63 289.196 153.604C287.925 152.578 287.322 151.199 287.322 149.435C287.322 147.671 287.989 146.068 289.323 144.593C290.625 143.149 292.403 141.963 294.635 141.065C299.144 139.173 304.32 138.115 310.163 137.858C310.617 137.345 311.751 135.453 313.497 132.214C315.221 129.007 316.196 126.955 316.323 126.121C310.449 131.156 305.286 133.657 300.811 133.657C299.033 133.657 297.668 133.048 296.842 131.765C296.016 130.514 295.604 128.975 295.604 127.115C295.604 125.287 296.302 122.144 297.69 117.655C299.087 113.197 299.786 110.664 299.786 110.022C299.786 109.413 299.627 109.124 299.36 109.124C299.084 109.124 298.757 109.188 298.439 109.349C298.109 109.496 297.782 109.734 297.474 110.054L296.598 110.952C296.598 110.952 296.042 111.626 295.724 112.139L294.994 113.293C294.295 114.406 293.851 115.14 293.66 115.506L293.533 115.346L293.425 115.214ZM307.81 141.18C305.143 141.347 302.412 141.838 299.617 142.64C294.251 144.179 291.584 145.988 291.584 148.059C291.584 149.303 292.346 149.919 293.87 149.919C295.394 149.919 297.903 148.806 301.332 146.578C304.762 144.349 306.953 142.556 307.842 141.177H307.874L307.81 141.18ZM349.31 65.7959H357.363C355.94 68.2748 353.755 73.7747 350.809 82.2954C347.855 90.8161 345.166 99.3881 342.727 108.015C340.282 116.628 339.075 121.901 339.075 123.831C339.075 125.755 339.31 126.727 339.774 126.727C341.178 126.727 343.34 124.61 346.29 120.364L348.386 122.378C346.925 124.928 345.337 127.07 343.654 128.805C340.669 131.893 338.256 133.429 336.383 133.429C332.985 133.429 331.302 131.377 331.302 127.259C331.302 121.134 333.302 111.488 337.335 98.2882C341.403 85.0886 345.404 74.2878 349.342 65.844L349.31 65.8023V65.7959ZM360.144 122.699C360.344 126.547 362.913 128.471 367.854 128.471C369.677 128.471 371.576 127.949 373.548 126.894C375.517 125.835 377.12 124.591 378.349 123.151L380.486 124.556C377.736 129.212 373.342 132.06 367.318 133.096C366.016 133.295 364.714 133.394 363.507 133.394C359.919 133.394 356.966 132.175 354.552 129.802C352.171 127.397 350.996 124.479 350.996 121.015C350.996 117.552 352.044 114.377 354.14 111.427C356.235 108.476 358.839 106.2 361.983 104.596C365.127 102.993 368.207 102.159 371.255 102.159C374.304 102.159 376.971 102.864 379.194 104.243C381.448 105.622 382.592 107.546 382.623 109.92C382.687 112.293 381.988 114.313 380.591 116.077C379.194 117.776 377.384 119.123 375.193 120.021C370.874 121.785 366.619 122.651 362.428 122.651L360.3 122.555L360.268 122.587L360.144 122.699ZM359.849 119.935C363.501 119.806 366.454 119.207 368.709 118.155C370.931 117.106 372.487 115.894 373.376 114.541C374.234 113.184 374.678 111.764 374.678 110.276C374.678 108.784 374.297 107.678 373.535 106.956C372.773 106.235 371.948 105.879 371.09 105.879C368.963 105.879 366.994 106.616 365.216 108.092C363.437 109.567 362.072 111.395 361.151 113.511C360.198 115.628 359.754 117.776 359.754 119.925H359.786L359.849 119.935ZM404.594 65.8023H412.647C411.218 68.2716 409.033 73.7715 406.087 82.2922C403.134 90.8161 400.444 99.3849 398.002 108.011C395.563 116.628 394.35 121.904 394.35 123.828C394.35 125.752 394.579 126.721 395.043 126.721C396.433 126.721 398.605 124.594 401.552 120.339L403.642 122.35C402.181 124.896 400.609 127.038 398.91 128.779C395.919 131.858 393.502 133.397 391.657 133.397C388.26 133.397 386.586 131.338 386.586 127.218C386.586 121.092 388.555 111.433 392.588 98.2401C396.621 85.0469 400.625 74.23 404.562 65.7959H404.585L404.594 65.8023ZM415.156 133.397C413.746 133.397 412.641 132.961 411.847 132.089C411.047 131.223 410.653 130.024 410.653 128.497C410.653 126.977 411.044 124.899 411.818 122.276C412.596 119.646 413.374 117.26 414.159 115.115C414.94 112.966 415.327 111.523 415.327 110.818C415.327 110.08 415.099 109.727 414.629 109.727C413.47 109.727 411.599 112.036 409.014 116.654L405.68 114.698C410.558 106.392 415.032 102.223 419.112 102.223C421.891 102.223 423.288 103.987 423.288 107.546C423.288 108.573 422.955 110.24 422.291 112.517L418.712 122.843C418.344 123.805 418.16 124.671 418.16 125.473C418.16 126.275 418.461 126.628 419.058 126.628C420.182 126.628 422.259 124.511 425.276 120.31L427.359 122.266C425.549 125.601 423.421 128.295 420.945 130.283C418.468 132.304 416.531 133.298 415.134 133.298L415.156 133.397ZM429.299 87.4168C429.299 88.7733 428.855 90.0048 427.956 91.1047C427.06 92.2175 425.86 92.7819 424.33 92.7819C422.805 92.7819 421.678 92.333 420.913 91.4094C420.151 90.489 419.738 89.3313 419.738 87.9139C419.738 86.5028 420.214 85.2842 421.167 84.1875C422.088 83.0971 423.326 82.5583 424.819 82.5583C426.279 82.5583 427.422 83.0522 428.153 83.995C428.883 84.9379 429.264 86.118 429.264 87.4649L429.232 87.42L429.299 87.4168ZM443.874 118.479C450.797 107.665 457.008 102.258 462.514 102.258C464.372 102.258 465.76 102.829 466.693 103.968C467.62 105.106 468.084 106.559 468.084 108.297C468.084 110.029 467.312 113.053 465.772 117.34C464.226 121.625 463.461 124.28 463.461 125.313C463.461 126.339 463.705 126.852 464.207 126.852C464.867 126.852 465.842 126.146 467.141 124.768C468.433 123.356 469.58 121.913 470.577 120.374L472.672 122.394C470.672 126.05 468.513 128.776 466.131 130.668C463.749 132.528 461.844 133.426 460.352 133.426C458.859 133.426 457.748 132.913 456.891 131.951C456.065 130.957 455.652 129.61 455.652 127.91C455.652 126.211 456.319 123.421 457.653 119.54C458.986 115.66 459.653 112.934 459.653 111.299C459.653 109.663 459.113 108.829 458.002 108.829C456.732 108.829 455.271 109.631 453.525 111.266C451.778 112.902 450.127 114.89 448.507 117.231C445.904 120.983 443.268 125.313 440.601 130.187L439.267 132.592H432.281L433.805 127.846C436.695 119.123 438.124 113.96 438.124 112.357C438.124 110.721 437.87 109.92 437.33 109.92C436.377 109.92 435.234 111.074 433.9 113.383C433.615 113.928 433.361 114.345 433.17 114.666C432.979 114.986 432.725 115.371 432.503 115.82C432.249 116.269 432.09 116.558 432.027 116.654L428.693 114.698C431.265 110.433 433.646 107.322 435.806 105.27C437.933 103.249 440.156 102.255 442.411 102.255C443.427 102.255 444.316 102.672 445.046 103.538C445.776 104.404 446.17 105.43 446.17 106.681C446.17 107.931 446.053 109.118 445.862 110.304C445.672 111.491 445.481 112.485 445.227 113.255L444.402 116.301C444.052 117.53 443.862 118.232 443.83 118.395L443.735 118.299L443.874 118.479ZM482.053 103.365C485.466 92.6537 488.95 83.6743 492.49 76.4428L498.657 76.9463C498.289 78.0174 497.396 80.6086 495.971 84.6813C492.89 93.6927 490.899 99.9141 490.001 103.345H497.812L497.025 106.649H488.985C485.93 116.141 484.428 121.945 484.428 123.998C484.428 126.05 484.65 127.076 485.063 127.076C485.508 127.076 485.857 126.98 486.206 126.82C487.095 126.307 489.032 123.87 491.985 119.476L494.018 121.336C491.795 125.409 489.54 128.423 487.159 130.38C484.809 132.336 482.872 133.33 481.348 133.33C479.824 133.33 478.68 132.785 477.887 131.726C477.124 130.636 476.743 129.257 476.743 127.59C476.743 123.324 478.236 116.333 481.189 106.616H475.981L476.807 103.281H482.237L482.142 103.217L482.053 103.365Z" fill="white"/>
</svg>
