<svg width="640" height="176" viewBox="0 0 640 176" fill="none" xmlns="http://www.w3.org/2000/svg">
<path d="M0 12C0 5.37258 5.37258 0 12 0H628C634.627 0 640 5.37258 640 12V164C640 170.627 634.627 176 628 176H12C5.37259 176 0 170.627 0 164V12Z" fill="url(#paint0_linear_1_308)"/>
<path fill-rule="evenodd" clip-rule="evenodd" d="M166.833 111.014C172.192 91.8511 172.037 91.7642 175.91 78.1012L176.842 78.6391C177.348 78.9315 177.762 78.6924 177.762 78.1093V71.5934C178.79 67.9933 179.596 65.2115 179.832 64.375H184.028L191 70.8335L186.421 74.7905L189.884 78.5336L167.065 111.013C166.953 111.196 166.798 111.155 166.833 111.013V111.014ZM169.326 69.7105C169.532 69.7105 169.701 69.8244 169.701 69.9658V73.3051C169.701 73.4462 169.532 73.5608 169.326 73.5608H163.689C163.482 73.5608 163.314 73.4466 163.314 73.3051V69.9658C163.314 69.8249 163.482 69.7105 163.689 69.7105H169.326H169.326Z" fill="white"/>
<path fill-rule="evenodd" clip-rule="evenodd" d="M176.283 66.0141L170.082 69.594C170.154 69.7034 170.198 69.8295 170.198 69.967V73.3064C170.198 73.4796 170.13 73.6358 170.02 73.7619L176.283 77.3777C176.71 77.6242 177.06 77.4225 177.06 76.93V66.4622C177.06 65.9693 176.71 65.7681 176.283 66.0141ZM162.815 73.3061V69.9668C162.815 69.8301 162.859 69.704 162.93 69.5946L156.729 66.0141C156.302 65.7681 155.952 65.9694 155.952 66.4622V76.9299C155.952 77.4223 156.302 77.6245 156.729 77.3771L162.992 73.7609C162.882 73.6349 162.815 73.479 162.815 73.3058L162.815 73.3061Z" fill="white"/>
<path fill-rule="evenodd" clip-rule="evenodd" d="M165.935 111.014H166.167C160.809 91.8511 160.963 91.7642 157.09 78.1012L156.158 78.6391C155.652 78.9315 155.238 78.6924 155.238 78.1093V71.5934C154.21 67.9933 153.405 65.2115 153.168 64.375H148.972L142 70.8335L146.578 74.7905L143.116 78.5336L165.935 111.014Z" fill="white"/>
<path d="M166.33 80.534C167.265 80.534 168.023 79.7762 168.023 78.8415C168.023 77.9067 167.265 77.1489 166.33 77.1489C165.395 77.1489 164.638 77.9067 164.638 78.8415C164.638 79.7762 165.395 80.534 166.33 80.534Z" fill="white"/>
<path d="M166.33 90.5975C167.265 90.5975 168.023 89.8397 168.023 88.9049C168.023 87.9702 167.265 87.2124 166.33 87.2124C165.395 87.2124 164.638 87.9702 164.638 88.9049C164.638 89.8397 165.395 90.5975 166.33 90.5975Z" fill="white"/>
<path d="M166.33 100.662C167.265 100.662 168.023 99.904 168.023 98.9693C168.023 98.0346 167.265 97.2769 166.33 97.2769C165.395 97.2769 164.638 98.0346 164.638 98.9693C164.638 99.904 165.395 100.662 166.33 100.662Z" fill="white"/>
<path d="M231.575 82.5982C231.484 81.606 231.083 80.8348 230.37 80.2846C229.667 79.7254 228.661 79.4458 227.353 79.4458C226.487 79.4458 225.766 79.5585 225.189 79.784C224.611 80.0095 224.178 80.3207 223.89 80.7176C223.601 81.1054 223.452 81.5519 223.443 82.057C223.425 82.4719 223.506 82.8373 223.687 83.1529C223.876 83.4686 224.147 83.7483 224.499 83.9918C224.859 84.2263 225.292 84.4338 225.797 84.6142C226.303 84.7946 226.871 84.9524 227.502 85.0877L229.883 85.6289C231.254 85.9266 232.463 86.3234 233.509 86.8195C234.565 87.3156 235.449 87.9064 236.161 88.5919C236.883 89.2775 237.429 90.0667 237.798 90.9597C238.168 91.8526 238.358 92.8538 238.367 93.9633C238.358 95.7131 237.916 97.215 237.041 98.4687C236.166 99.7225 234.907 100.683 233.266 101.351C231.633 102.018 229.662 102.352 227.353 102.352C225.035 102.352 223.015 102.005 221.292 101.31C219.569 100.615 218.23 99.5601 217.274 98.144C216.318 96.7279 215.826 94.9374 215.799 92.7727H222.212C222.266 93.6656 222.505 94.4098 222.929 95.0051C223.353 95.6004 223.935 96.0514 224.674 96.3581C225.423 96.6647 226.289 96.8181 227.272 96.8181C228.174 96.8181 228.941 96.6963 229.572 96.4528C230.213 96.2092 230.704 95.871 231.047 95.438C231.39 95.0051 231.566 94.509 231.575 93.9498C231.566 93.4266 231.403 92.9801 231.088 92.6103C230.772 92.2315 230.285 91.9067 229.626 91.6362C228.977 91.3565 228.147 91.0995 227.137 90.865L224.241 90.1885C221.842 89.6382 219.953 88.7498 218.572 87.5231C217.192 86.2874 216.507 84.6187 216.516 82.517C216.507 80.8033 216.967 79.3015 217.896 78.0116C218.825 76.7218 220.11 75.7161 221.752 74.9945C223.394 74.2729 225.265 73.9121 227.367 73.9121C229.514 73.9121 231.376 74.2774 232.955 75.008C234.542 75.7296 235.773 76.7443 236.648 78.0522C237.523 79.3601 237.97 80.8754 237.988 82.5982H231.575ZM253.479 81.2182V86.0889H240.369V81.2182H253.479ZM243.116 76.2392H249.732V95.4651C249.732 95.871 249.795 96.2002 249.921 96.4528C250.056 96.6963 250.25 96.8722 250.503 96.9804C250.755 97.0797 251.058 97.1293 251.409 97.1293C251.662 97.1293 251.928 97.1067 252.208 97.0616C252.496 97.0075 252.713 96.9624 252.857 96.9263L253.858 101.702C253.543 101.793 253.096 101.905 252.519 102.041C251.951 102.176 251.27 102.262 250.476 102.298C248.924 102.37 247.594 102.189 246.485 101.756C245.384 101.314 244.541 100.629 243.954 99.6999C243.377 98.7709 243.098 97.6028 243.116 96.1957V76.2392ZM260.901 109.793C260.107 109.793 259.358 109.73 258.655 109.604C257.951 109.487 257.347 109.329 256.842 109.13L258.303 104.327C258.952 104.544 259.539 104.67 260.062 104.706C260.594 104.742 261.049 104.656 261.428 104.449C261.816 104.25 262.114 103.894 262.321 103.38L262.578 102.758L255.191 81.2182H262.118L265.947 96.0469H266.164L270.047 81.2182H277.015L269.181 103.989C268.802 105.125 268.265 106.127 267.571 106.993C266.885 107.867 265.997 108.553 264.905 109.049C263.823 109.545 262.488 109.793 260.901 109.793ZM286.168 74.2909V102H279.551V74.2909H286.168ZM300.093 102.392C297.919 102.392 296.043 101.964 294.465 101.107C292.895 100.241 291.687 99.0099 290.839 97.4134C290 95.8078 289.58 93.9001 289.58 91.6903C289.58 89.5435 290.004 87.6674 290.852 86.0619C291.7 84.4473 292.895 83.1935 294.438 82.3006C295.98 81.3986 297.798 80.9476 299.89 80.9476C301.369 80.9476 302.722 81.1776 303.949 81.6376C305.176 82.0976 306.236 82.7786 307.129 83.6806C308.022 84.5826 308.716 85.6966 309.212 87.0225C309.708 88.3394 309.956 89.8502 309.956 91.555V93.2056H291.894V89.3631H303.8C303.791 88.6596 303.624 88.0327 303.3 87.4825C302.975 86.9323 302.528 86.5038 301.96 86.1972C301.401 85.8815 300.756 85.7236 300.025 85.7236C299.286 85.7236 298.623 85.8905 298.037 86.2242C297.45 86.5489 296.986 86.9954 296.643 87.5637C296.3 88.1229 296.12 88.7588 296.102 89.4714V93.3815C296.102 94.2294 296.269 94.9735 296.602 95.6139C296.936 96.2453 297.41 96.7369 298.023 97.0887C298.636 97.4404 299.367 97.6163 300.215 97.6163C300.801 97.6163 301.333 97.5352 301.811 97.3728C302.289 97.2104 302.7 96.9714 303.043 96.6557C303.385 96.34 303.642 95.9522 303.814 95.4922L309.889 95.668C309.636 97.03 309.081 98.2162 308.225 99.2264C307.377 100.228 306.263 101.008 304.883 101.567C303.503 102.117 301.906 102.392 300.093 102.392ZM319.951 74.2909V102H313.335V74.2909H319.951ZM324.163 102V81.2182H330.779V102H324.163ZM327.477 78.7963C326.548 78.7963 325.75 78.4897 325.083 77.8763C324.415 77.2539 324.081 76.5053 324.081 75.6304C324.081 74.7645 324.415 74.0248 325.083 73.4115C325.75 72.7891 326.548 72.4779 327.477 72.4779C328.416 72.4779 329.214 72.7891 329.872 73.4115C330.54 74.0248 330.873 74.7645 330.873 75.6304C330.873 76.5053 330.54 77.2539 329.872 77.8763C329.214 78.4897 328.416 78.7963 327.477 78.7963ZM341.606 90.1479V102H334.99V81.2182H341.281V85.0336H341.511C341.971 83.7618 342.756 82.7651 343.865 82.0435C344.975 81.3129 346.296 80.9476 347.83 80.9476C349.291 80.9476 350.558 81.2768 351.632 81.9353C352.714 82.5847 353.553 83.4957 354.148 84.6683C354.752 85.8319 355.05 87.1939 355.041 88.7543V102H348.425V90.0532C348.434 88.8986 348.141 87.9966 347.546 87.3472C346.959 86.6978 346.143 86.373 345.097 86.373C344.402 86.373 343.789 86.5264 343.257 86.8331C342.733 87.1307 342.328 87.5592 342.039 88.1184C341.759 88.6776 341.615 89.3541 341.606 90.1479ZM370.868 81.2182V86.0889H357.757V81.2182H370.868ZM360.504 76.2392H367.12V95.4651C367.12 95.871 367.183 96.2002 367.309 96.4528C367.445 96.6963 367.638 96.8722 367.891 96.9804C368.144 97.0797 368.446 97.1293 368.798 97.1293C369.05 97.1293 369.316 97.1067 369.596 97.0616C369.884 97.0075 370.101 96.9624 370.245 96.9263L371.246 101.702C370.931 101.793 370.484 101.905 369.907 102.041C369.339 102.176 368.658 102.262 367.864 102.298C366.313 102.37 364.982 102.189 363.873 101.756C362.772 101.314 361.929 100.629 361.343 99.6999C360.765 98.7709 360.486 97.6028 360.504 96.1957V76.2392ZM392.13 102.392C389.938 102.392 388.057 101.941 386.488 101.039C384.927 100.137 383.728 98.8836 382.889 97.2781C382.05 95.6635 381.631 93.7964 381.631 91.6767C381.631 89.548 382.05 87.6809 382.889 86.0754C383.737 84.4608 384.941 83.2026 386.501 82.3006C388.071 81.3986 389.942 80.9476 392.116 80.9476C394.037 80.9476 395.711 81.2949 397.136 81.9894C398.57 82.6839 399.688 83.6671 400.491 84.9389C401.303 86.2017 401.731 87.6854 401.777 89.3902H395.593C395.467 88.3259 395.106 87.4915 394.511 86.8872C393.925 86.2828 393.158 85.9807 392.211 85.9807C391.444 85.9807 390.772 86.1972 390.195 86.6301C389.618 87.054 389.167 87.6854 388.842 88.5243C388.526 89.3541 388.368 90.3824 388.368 91.6091C388.368 92.8358 388.526 93.8731 388.842 94.721C389.167 95.5598 389.618 96.1957 390.195 96.6287C390.772 97.0526 391.444 97.2646 392.211 97.2646C392.824 97.2646 393.365 97.1338 393.834 96.8722C394.313 96.6106 394.705 96.2273 395.012 95.7222C395.318 95.208 395.512 94.5857 395.593 93.855H401.777C401.713 95.5688 401.285 97.0661 400.491 98.3469C399.706 99.6278 398.602 100.624 397.176 101.337C395.76 102.041 394.078 102.392 392.13 102.392ZM414.863 102.392C412.68 102.392 410.804 101.946 409.235 101.053C407.674 100.151 406.47 98.8972 405.622 97.2916C404.784 95.6771 404.364 93.8054 404.364 91.6767C404.364 89.539 404.784 87.6674 405.622 86.0619C406.47 84.4473 407.674 83.1935 409.235 82.3006C410.804 81.3986 412.68 80.9476 414.863 80.9476C417.046 80.9476 418.918 81.3986 420.478 82.3006C422.048 83.1935 423.252 84.4473 424.091 86.0619C424.938 87.6674 425.362 89.539 425.362 91.6767C425.362 93.8054 424.938 95.6771 424.091 97.2916C423.252 98.8972 422.048 100.151 420.478 101.053C418.918 101.946 417.046 102.392 414.863 102.392ZM414.904 97.3999C415.698 97.3999 416.37 97.1563 416.92 96.6692C417.47 96.1822 417.889 95.5057 418.178 94.6398C418.476 93.7739 418.625 92.7727 418.625 91.6362C418.625 90.4816 418.476 89.4714 418.178 88.6055C417.889 87.7396 417.47 87.0631 416.92 86.576C416.37 86.0889 415.698 85.8454 414.904 85.8454C414.083 85.8454 413.388 86.0889 412.82 86.576C412.261 87.0631 411.833 87.7396 411.535 88.6055C411.246 89.4714 411.102 90.4816 411.102 91.6362C411.102 92.7727 411.246 93.7739 411.535 94.6398C411.833 95.5057 412.261 96.1822 412.82 96.6692C413.388 97.1563 414.083 97.3999 414.904 97.3999ZM435.368 90.1479V102H428.752V81.2182H435.043V85.0336H435.273C435.733 83.7618 436.518 82.7651 437.627 82.0435C438.737 81.3129 440.058 80.9476 441.591 80.9476C443.053 80.9476 444.32 81.2768 445.393 81.9353C446.476 82.5847 447.315 83.4957 447.91 84.6683C448.514 85.8319 448.812 87.1939 448.803 88.7543V102H442.187V90.0532C442.196 88.8986 441.903 87.9966 441.307 87.3472C440.721 86.6978 439.905 86.373 438.858 86.373C438.164 86.373 437.551 86.5264 437.018 86.8331C436.495 87.1307 436.089 87.5592 435.801 88.1184C435.521 88.6776 435.377 89.3541 435.368 90.1479ZM464.711 81.2182V86.0889H451.343V81.2182H464.711ZM454.13 102V80.1629C454.13 78.5573 454.432 77.2269 455.037 76.1716C455.641 75.1072 456.48 74.3135 457.553 73.7903C458.627 73.2581 459.867 72.992 461.274 72.992C462.194 72.992 463.06 73.0642 463.872 73.2085C464.692 73.3438 465.301 73.4656 465.698 73.5738L464.643 78.4175C464.399 78.3363 464.102 78.2687 463.75 78.2146C463.407 78.1604 463.082 78.1334 462.776 78.1334C462 78.1334 461.468 78.3048 461.179 78.6475C460.891 78.9903 460.746 79.4593 460.746 80.0546V102H454.13ZM467.893 102V81.2182H474.509V102H467.893ZM471.208 78.7963C470.279 78.7963 469.481 78.4897 468.813 77.8763C468.146 77.2539 467.812 76.5053 467.812 75.6304C467.812 74.7645 468.146 74.0248 468.813 73.4115C469.481 72.7891 470.279 72.4779 471.208 72.4779C472.146 72.4779 472.945 72.7891 473.603 73.4115C474.27 74.0248 474.604 74.7645 474.604 75.6304C474.604 76.5053 474.27 77.2539 473.603 77.8763C472.945 78.4897 472.146 78.7963 471.208 78.7963ZM488.408 110.226C486.433 110.226 484.741 109.951 483.334 109.401C481.927 108.851 480.822 108.097 480.02 107.141C479.217 106.185 478.734 105.103 478.572 103.894L484.836 103.542C484.953 103.966 485.17 104.336 485.486 104.652C485.81 104.968 486.23 105.211 486.744 105.382C487.267 105.554 487.88 105.64 488.584 105.64C489.693 105.64 490.609 105.369 491.33 104.828C492.061 104.296 492.426 103.362 492.426 102.027V98.374H492.196C491.935 99.0144 491.538 99.5872 491.006 100.092C490.474 100.597 489.811 100.994 489.017 101.283C488.232 101.572 487.33 101.716 486.311 101.716C484.796 101.716 483.406 101.364 482.144 100.661C480.89 99.948 479.884 98.8475 479.127 97.3593C478.378 95.862 478.004 93.9362 478.004 91.582C478.004 89.1557 478.391 87.1578 479.167 85.5883C479.943 84.0098 480.958 82.8418 482.211 82.0841C483.474 81.3264 484.832 80.9476 486.284 80.9476C487.375 80.9476 488.309 81.137 489.085 81.5158C489.869 81.8857 490.514 82.3637 491.019 82.95C491.524 83.5363 491.908 84.1451 492.169 84.7765H492.359V81.2182H498.948V102.081C498.948 103.84 498.506 105.324 497.622 106.532C496.738 107.741 495.502 108.657 493.915 109.279C492.327 109.91 490.492 110.226 488.408 110.226ZM488.611 96.8993C489.414 96.8993 490.099 96.6873 490.667 96.2634C491.236 95.8394 491.673 95.2306 491.98 94.4368C492.287 93.6431 492.44 92.6915 492.44 91.582C492.44 90.4545 492.287 89.4849 491.98 88.6731C491.682 87.8523 491.245 87.2209 490.667 86.7789C490.099 86.337 489.414 86.116 488.611 86.116C487.79 86.116 487.096 86.3415 486.527 86.7925C485.959 87.2435 485.526 87.8794 485.229 88.7002C484.94 89.512 484.796 90.4726 484.796 91.582C484.796 92.6915 484.944 93.6431 485.242 94.4368C485.54 95.2306 485.968 95.8394 486.527 96.2634C487.096 96.6873 487.79 96.8993 488.611 96.8993Z" fill="white"/>
<defs>
<linearGradient id="paint0_linear_1_308" x1="0" y1="0" x2="604.091" y2="259.57" gradientUnits="userSpaceOnUse">
<stop stop-color="#171717"/>
<stop offset="1" stop-color="#262626"/>
</linearGradient>
</defs>
</svg>
